<svg xmlns="http://www.w3.org/2000/svg" xmlns:xlink="http://www.w3.org/1999/xlink" width="500" zoomAndPan="magnify" viewBox="0 0 375 374.999991" height="500" preserveAspectRatio="xMidYMid meet" version="1.0"><defs><g/><clipPath id="id1"><path d="M 85.425781 75.417969 L 289 75.417969 L 289 249 L 85.425781 249 Z M 85.425781 75.417969 " clip-rule="nonzero"/></clipPath></defs><g clip-path="url(#id1)"><path fill="#000000" d="M 278.769531 248.890625 L 96.082031 248.890625 C 95.1875 248.890625 94.304688 248.773438 93.4375 248.539062 C 92.570312 248.304688 91.75 247.957031 90.972656 247.503906 C 90.195312 247.050781 89.492188 246.503906 88.863281 245.863281 C 88.230469 245.222656 87.695312 244.511719 87.253906 243.730469 C 86.808594 242.945312 86.476562 242.117188 86.253906 241.246094 C 86.03125 240.375 85.925781 239.488281 85.933594 238.589844 C 85.945312 237.6875 86.074219 236.804688 86.320312 235.9375 C 86.566406 235.074219 86.917969 234.253906 87.382812 233.484375 L 178.722656 80.882812 C 178.949219 80.507812 179.195312 80.148438 179.46875 79.804688 C 179.738281 79.460938 180.027344 79.136719 180.339844 78.832031 C 180.652344 78.527344 180.984375 78.242188 181.332031 77.980469 C 181.683594 77.71875 182.046875 77.476562 182.425781 77.261719 C 182.804688 77.046875 183.199219 76.855469 183.601562 76.691406 C 184.007812 76.527344 184.417969 76.390625 184.839844 76.277344 C 185.261719 76.167969 185.691406 76.082031 186.125 76.027344 C 186.554688 75.96875 186.992188 75.941406 187.425781 75.941406 C 187.863281 75.941406 188.296875 75.96875 188.730469 76.027344 C 189.164062 76.082031 189.589844 76.167969 190.011719 76.277344 C 190.433594 76.390625 190.847656 76.527344 191.253906 76.691406 C 191.65625 76.855469 192.046875 77.046875 192.429688 77.261719 C 192.808594 77.476562 193.171875 77.71875 193.519531 77.980469 C 193.871094 78.242188 194.199219 78.527344 194.511719 78.832031 C 194.824219 79.136719 195.117188 79.460938 195.386719 79.804688 C 195.65625 80.148438 195.90625 80.507812 196.128906 80.882812 L 287.472656 233.484375 C 287.933594 234.253906 288.289062 235.074219 288.535156 235.9375 C 288.78125 236.804688 288.90625 237.6875 288.917969 238.589844 C 288.929688 239.488281 288.824219 240.375 288.601562 241.246094 C 288.378906 242.117188 288.042969 242.945312 287.601562 243.730469 C 287.160156 244.511719 286.625 245.222656 285.992188 245.863281 C 285.363281 246.503906 284.65625 247.050781 283.882812 247.503906 C 283.105469 247.957031 282.285156 248.304688 281.417969 248.539062 C 280.550781 248.773438 279.667969 248.890625 278.769531 248.890625 Z M 114.007812 228.542969 L 260.847656 228.542969 L 187.425781 105.886719 Z M 114.007812 228.542969 " fill-opacity="1" fill-rule="nonzero"/></g><g fill="#5ce1e6" fill-opacity="0.302"><g transform="translate(29.761224, 290.869576)"><g><path d="M 11.089844 0.0351562 C 12.859375 0.0351562 14.492188 -0.238281 16.023438 -0.816406 C 17.554688 -1.394531 18.882812 -2.210938 20.003906 -3.265625 C 21.09375 -4.320312 21.976562 -5.578125 22.625 -7.078125 C 23.234375 -8.574219 23.578125 -10.207031 23.578125 -12.042969 C 23.578125 -13.847656 23.234375 -15.480469 22.625 -16.976562 C 21.976562 -18.472656 21.09375 -19.730469 20.003906 -20.785156 C 18.882812 -21.839844 17.554688 -22.65625 16.058594 -23.234375 C 14.527344 -23.816406 12.859375 -24.121094 11.089844 -24.121094 L 5.441406 -24.121094 C 4.96875 -24.121094 4.523438 -24.019531 4.152344 -23.847656 C 3.777344 -23.679688 3.46875 -23.472656 3.230469 -23.203125 C 2.992188 -22.929688 2.824219 -22.65625 2.6875 -22.351562 C 2.550781 -22.011719 2.515625 -21.707031 2.515625 -21.398438 L 2.515625 -2.722656 C 2.515625 -2.414062 2.550781 -2.109375 2.6875 -1.769531 C 2.824219 -1.429688 2.992188 -1.15625 3.230469 -0.882812 C 3.46875 -0.613281 3.777344 -0.375 4.152344 -0.203125 C 4.523438 -0.0351562 4.96875 0.0351562 5.441406 0.0351562 Z M 11.089844 -5.375 L 8.710938 -5.375 C 8.640625 -5.375 8.539062 -5.410156 8.4375 -5.476562 C 8.300781 -5.546875 8.265625 -5.679688 8.265625 -5.886719 L 8.265625 -18.199219 C 8.265625 -18.371094 8.300781 -18.507812 8.4375 -18.609375 C 8.539062 -18.675781 8.640625 -18.746094 8.710938 -18.746094 L 11.089844 -18.746094 C 12.179688 -18.746094 13.167969 -18.574219 14.015625 -18.234375 C 14.832031 -17.894531 15.546875 -17.417969 16.125 -16.804688 C 16.671875 -16.195312 17.113281 -15.511719 17.382812 -14.695312 C 17.65625 -13.878906 17.828125 -12.996094 17.828125 -12.078125 C 17.828125 -11.125 17.65625 -10.273438 17.382812 -9.457031 C 17.113281 -8.640625 16.671875 -7.925781 16.125 -7.316406 C 15.546875 -6.703125 14.832031 -6.226562 14.015625 -5.886719 C 13.167969 -5.546875 12.179688 -5.375 11.089844 -5.375 Z M 11.089844 -5.375 "/></g></g></g><g fill="#5ce1e6" fill-opacity="0.302"><g transform="translate(55.921731, 290.869576)"><g><path d="M 5.410156 0 L 15.039062 0 C 15.511719 0 15.921875 -0.0664062 16.296875 -0.238281 C 16.636719 -0.410156 16.941406 -0.613281 17.179688 -0.882812 C 17.417969 -1.15625 17.589844 -1.429688 17.726562 -1.769531 C 17.828125 -2.074219 17.894531 -2.382812 17.894531 -2.6875 C 17.894531 -2.992188 17.828125 -3.300781 17.691406 -3.640625 C 17.554688 -3.945312 17.382812 -4.21875 17.148438 -4.492188 C 16.875 -4.730469 16.566406 -4.933594 16.226562 -5.101562 C 15.886719 -5.273438 15.480469 -5.375 15.003906 -5.375 L 8.675781 -5.375 C 8.605469 -5.375 8.503906 -5.410156 8.402344 -5.476562 C 8.265625 -5.546875 8.234375 -5.679688 8.234375 -5.886719 L 8.234375 -9.421875 C 8.234375 -9.59375 8.265625 -9.730469 8.402344 -9.832031 C 8.503906 -9.898438 8.605469 -9.96875 8.675781 -9.96875 L 13.234375 -9.96875 C 13.710938 -9.96875 14.117188 -10.035156 14.457031 -10.207031 C 14.800781 -10.375 15.105469 -10.582031 15.34375 -10.851562 C 15.582031 -11.125 15.75 -11.398438 15.886719 -11.738281 C 16.023438 -12.042969 16.09375 -12.347656 16.09375 -12.65625 C 16.09375 -12.960938 16.023438 -13.269531 15.886719 -13.609375 C 15.75 -13.914062 15.582031 -14.1875 15.34375 -14.457031 C 15.070312 -14.695312 14.765625 -14.902344 14.425781 -15.070312 C 14.085938 -15.242188 13.675781 -15.34375 13.199219 -15.34375 L 8.640625 -15.34375 C 8.574219 -15.34375 8.472656 -15.378906 8.367188 -15.445312 C 8.234375 -15.511719 8.199219 -15.648438 8.199219 -15.855469 L 8.199219 -18.199219 C 8.199219 -18.371094 8.234375 -18.507812 8.367188 -18.609375 C 8.472656 -18.675781 8.574219 -18.746094 8.640625 -18.746094 L 14.96875 -18.746094 C 15.445312 -18.746094 15.855469 -18.8125 16.226562 -18.984375 C 16.566406 -19.152344 16.875 -19.359375 17.113281 -19.628906 C 17.351562 -19.867188 17.519531 -20.140625 17.65625 -20.480469 C 17.757812 -20.785156 17.828125 -21.09375 17.828125 -21.398438 C 17.828125 -21.707031 17.757812 -22.011719 17.621094 -22.351562 C 17.488281 -22.65625 17.316406 -22.929688 17.078125 -23.203125 C 16.804688 -23.441406 16.5 -23.644531 16.160156 -23.816406 C 15.820312 -23.984375 15.410156 -24.085938 14.933594 -24.085938 L 5.308594 -24.085938 C 4.832031 -24.085938 4.390625 -23.984375 4.046875 -23.816406 C 3.707031 -23.644531 3.402344 -23.441406 3.164062 -23.167969 C 2.890625 -22.894531 2.722656 -22.625 2.585938 -22.316406 C 2.449219 -21.976562 2.414062 -21.671875 2.414062 -21.398438 L 2.414062 -2.652344 C 2.414062 -2.3125 2.484375 -1.972656 2.621094 -1.667969 C 2.753906 -1.328125 2.960938 -1.054688 3.230469 -0.816406 C 3.503906 -0.542969 3.808594 -0.339844 4.183594 -0.203125 C 4.558594 -0.0664062 4.96875 0 5.410156 0 Z M 5.410156 0 "/></g></g></g><g fill="#5ce1e6" fill-opacity="0.302"><g transform="translate(76.401092, 290.869576)"><g><path d="M 8.234375 -14.289062 L 12.757812 -9.59375 C 12.929688 -9.390625 13.132812 -9.253906 13.402344 -9.117188 C 13.675781 -8.980469 13.949219 -8.914062 14.289062 -8.914062 C 14.628906 -8.914062 14.902344 -8.980469 15.171875 -9.117188 C 15.445312 -9.253906 15.648438 -9.390625 15.855469 -9.59375 L 20.378906 -14.289062 L 20.378906 -2.621094 C 20.378906 -2.3125 20.414062 -2.007812 20.546875 -1.699219 C 20.683594 -1.359375 20.855469 -1.089844 21.09375 -0.816406 C 21.332031 -0.542969 21.636719 -0.304688 21.976562 -0.136719 C 22.316406 0.0351562 22.761719 0.101562 23.234375 0.101562 C 23.710938 0.101562 24.121094 0.0351562 24.460938 -0.136719 C 24.800781 -0.304688 25.105469 -0.511719 25.34375 -0.78125 C 25.582031 -1.054688 25.753906 -1.328125 25.890625 -1.667969 C 26.027344 -1.972656 26.09375 -2.28125 26.09375 -2.585938 L 26.09375 -21.332031 C 26.09375 -21.636719 26.027344 -21.945312 25.890625 -22.25 C 25.753906 -22.554688 25.582031 -22.828125 25.34375 -23.101562 C 25.074219 -23.371094 24.765625 -23.578125 24.425781 -23.746094 C 24.085938 -23.882812 23.679688 -23.984375 23.203125 -23.984375 C 22.761719 -23.984375 22.351562 -23.882812 21.976562 -23.746094 C 21.601562 -23.578125 21.296875 -23.371094 21.058594 -23.132812 L 14.222656 -15.988281 L 7.550781 -23.203125 C 7.007812 -23.78125 6.292969 -24.085938 5.410156 -24.085938 C 4.933594 -24.085938 4.492188 -23.984375 4.152344 -23.816406 C 3.808594 -23.644531 3.503906 -23.441406 3.265625 -23.167969 C 2.992188 -22.894531 2.824219 -22.625 2.6875 -22.316406 C 2.550781 -21.976562 2.515625 -21.671875 2.515625 -21.398438 L 2.515625 -2.652344 C 2.515625 -2.347656 2.550781 -2.042969 2.6875 -1.734375 C 2.824219 -1.394531 2.992188 -1.121094 3.230469 -0.851562 C 3.46875 -0.578125 3.777344 -0.339844 4.117188 -0.171875 C 4.457031 0 4.898438 0.0664062 5.375 0.0664062 C 5.851562 0.0664062 6.261719 0 6.632812 -0.171875 C 6.972656 -0.339844 7.28125 -0.542969 7.519531 -0.816406 C 7.757812 -1.089844 7.925781 -1.359375 8.0625 -1.699219 C 8.164062 -2.007812 8.234375 -2.3125 8.234375 -2.621094 Z M 8.234375 -14.289062 "/></g></g></g><g fill="#5ce1e6" fill-opacity="0.302"><g transform="translate(105.18106, 290.869576)"><g><path d="M 15.039062 0 C 16.804688 0 18.4375 -0.273438 19.96875 -0.851562 C 21.46875 -1.429688 22.792969 -2.246094 23.917969 -3.300781 C 25.003906 -4.355469 25.890625 -5.613281 26.535156 -7.109375 C 27.148438 -8.605469 27.488281 -10.242188 27.488281 -12.078125 C 27.488281 -13.878906 27.148438 -15.511719 26.535156 -17.011719 C 25.890625 -18.472656 25.003906 -19.730469 23.917969 -20.785156 C 22.792969 -21.839844 21.46875 -22.65625 19.96875 -23.234375 C 18.4375 -23.816406 16.804688 -24.121094 15.039062 -24.121094 C 13.269531 -24.121094 11.601562 -23.816406 10.070312 -23.234375 C 8.539062 -22.65625 7.210938 -21.839844 6.125 -20.785156 C 5 -19.730469 4.117188 -18.472656 3.503906 -17.011719 C 2.859375 -15.511719 2.550781 -13.878906 2.550781 -12.078125 C 2.550781 -10.242188 2.859375 -8.605469 3.503906 -7.109375 C 4.117188 -5.613281 5 -4.355469 6.125 -3.300781 C 7.210938 -2.246094 8.539062 -1.429688 10.070312 -0.851562 C 11.601562 -0.273438 13.269531 0 15.039062 0 Z M 21.738281 -12.078125 C 21.738281 -11.125 21.570312 -10.242188 21.296875 -9.421875 C 21.023438 -8.605469 20.582031 -7.925781 20.039062 -7.316406 C 19.492188 -6.703125 18.78125 -6.261719 17.964844 -5.917969 C 17.113281 -5.578125 16.125 -5.410156 15.039062 -5.410156 C 13.914062 -5.410156 12.929688 -5.578125 12.113281 -5.917969 C 11.261719 -6.261719 10.546875 -6.703125 10.003906 -7.316406 C 9.421875 -7.925781 8.980469 -8.605469 8.710938 -9.421875 C 8.4375 -10.242188 8.300781 -11.125 8.300781 -12.078125 C 8.300781 -12.996094 8.4375 -13.878906 8.710938 -14.695312 C 8.980469 -15.511719 9.421875 -16.195312 10.003906 -16.804688 C 10.546875 -17.417969 11.261719 -17.894531 12.113281 -18.234375 C 12.929688 -18.574219 13.914062 -18.746094 15.039062 -18.746094 C 16.125 -18.746094 17.113281 -18.574219 17.964844 -18.234375 C 18.78125 -17.894531 19.492188 -17.417969 20.039062 -16.804688 C 20.582031 -16.195312 21.023438 -15.511719 21.296875 -14.695312 C 21.570312 -13.878906 21.738281 -12.996094 21.738281 -12.078125 Z M 21.738281 -12.078125 "/></g></g></g><g fill="#5ce1e6" fill-opacity="0.302"><g transform="translate(135.219728, 290.869576)"><g/></g></g><g fill="#5ce1e6" fill-opacity="0.302"><g transform="translate(145.425385, 290.869576)"><g><path d="M 15.039062 0 C 16.804688 0 18.4375 -0.273438 19.96875 -0.851562 C 21.46875 -1.429688 22.792969 -2.246094 23.917969 -3.300781 C 25.003906 -4.355469 25.890625 -5.613281 26.535156 -7.109375 C 27.148438 -8.605469 27.488281 -10.242188 27.488281 -12.078125 C 27.488281 -13.878906 27.148438 -15.511719 26.535156 -17.011719 C 25.890625 -18.472656 25.003906 -19.730469 23.917969 -20.785156 C 22.792969 -21.839844 21.46875 -22.65625 19.96875 -23.234375 C 18.4375 -23.816406 16.804688 -24.121094 15.039062 -24.121094 C 13.269531 -24.121094 11.601562 -23.816406 10.070312 -23.234375 C 8.539062 -22.65625 7.210938 -21.839844 6.125 -20.785156 C 5 -19.730469 4.117188 -18.472656 3.503906 -17.011719 C 2.859375 -15.511719 2.550781 -13.878906 2.550781 -12.078125 C 2.550781 -10.242188 2.859375 -8.605469 3.503906 -7.109375 C 4.117188 -5.613281 5 -4.355469 6.125 -3.300781 C 7.210938 -2.246094 8.539062 -1.429688 10.070312 -0.851562 C 11.601562 -0.273438 13.269531 0 15.039062 0 Z M 21.738281 -12.078125 C 21.738281 -11.125 21.570312 -10.242188 21.296875 -9.421875 C 21.023438 -8.605469 20.582031 -7.925781 20.039062 -7.316406 C 19.492188 -6.703125 18.78125 -6.261719 17.964844 -5.917969 C 17.113281 -5.578125 16.125 -5.410156 15.039062 -5.410156 C 13.914062 -5.410156 12.929688 -5.578125 12.113281 -5.917969 C 11.261719 -6.261719 10.546875 -6.703125 10.003906 -7.316406 C 9.421875 -7.925781 8.980469 -8.605469 8.710938 -9.421875 C 8.4375 -10.242188 8.300781 -11.125 8.300781 -12.078125 C 8.300781 -12.996094 8.4375 -13.878906 8.710938 -14.695312 C 8.980469 -15.511719 9.421875 -16.195312 10.003906 -16.804688 C 10.546875 -17.417969 11.261719 -17.894531 12.113281 -18.234375 C 12.929688 -18.574219 13.914062 -18.746094 15.039062 -18.746094 C 16.125 -18.746094 17.113281 -18.574219 17.964844 -18.234375 C 18.78125 -17.894531 19.492188 -17.417969 20.039062 -16.804688 C 20.582031 -16.195312 21.023438 -15.511719 21.296875 -14.695312 C 21.570312 -13.878906 21.738281 -12.996094 21.738281 -12.078125 Z M 21.738281 -12.078125 "/></g></g></g><g fill="#5ce1e6" fill-opacity="0.302"><g transform="translate(175.464053, 290.869576)"><g><path d="M 8.234375 -13.8125 L 19.324219 -0.988281 C 19.5625 -0.679688 19.867188 -0.441406 20.277344 -0.238281 C 20.652344 -0.0351562 21.09375 0.0351562 21.570312 0.0351562 C 22.046875 0.0351562 22.453125 -0.0351562 22.792969 -0.203125 C 23.132812 -0.375 23.441406 -0.578125 23.679688 -0.851562 C 23.917969 -1.121094 24.085938 -1.394531 24.222656 -1.734375 C 24.359375 -2.042969 24.425781 -2.347656 24.425781 -2.652344 L 24.425781 -21.398438 C 24.425781 -21.671875 24.359375 -21.976562 24.222656 -22.316406 C 24.085938 -22.625 23.917969 -22.894531 23.679688 -23.167969 C 23.40625 -23.40625 23.101562 -23.609375 22.761719 -23.78125 C 22.417969 -23.949219 22.011719 -24.054688 21.535156 -24.054688 C 21.058594 -24.054688 20.617188 -23.949219 20.277344 -23.78125 C 19.9375 -23.609375 19.628906 -23.40625 19.390625 -23.132812 C 19.121094 -22.863281 18.949219 -22.589844 18.8125 -22.285156 C 18.675781 -21.945312 18.644531 -21.636719 18.644531 -21.363281 L 18.644531 -10.410156 L 7.65625 -23.132812 C 7.382812 -23.40625 7.078125 -23.609375 6.703125 -23.816406 C 6.292969 -24.019531 5.886719 -24.121094 5.410156 -24.121094 C 4.933594 -24.121094 4.492188 -24.019531 4.152344 -23.847656 C 3.808594 -23.679688 3.503906 -23.472656 3.265625 -23.203125 C 2.992188 -22.929688 2.824219 -22.65625 2.6875 -22.351562 C 2.550781 -22.011719 2.515625 -21.707031 2.515625 -21.398438 L 2.515625 -2.6875 C 2.515625 -2.382812 2.550781 -2.074219 2.6875 -1.769531 C 2.824219 -1.429688 2.992188 -1.15625 3.230469 -0.882812 C 3.46875 -0.613281 3.777344 -0.375 4.117188 -0.203125 C 4.457031 -0.0351562 4.898438 0.0351562 5.375 0.0351562 C 5.851562 0.0351562 6.261719 -0.0351562 6.632812 -0.203125 C 6.972656 -0.375 7.28125 -0.578125 7.519531 -0.851562 C 7.757812 -1.121094 7.925781 -1.394531 8.0625 -1.734375 C 8.164062 -2.042969 8.234375 -2.347656 8.234375 -2.652344 Z M 8.234375 -13.8125 "/></g></g></g><g fill="#5ce1e6" fill-opacity="0.302"><g transform="translate(202.509053, 290.869576)"><g/></g></g><g fill="#5ce1e6" fill-opacity="0.502"><g transform="translate(28.471596, 291.143678)"><g><path d="M 11.089844 0.0351562 C 12.859375 0.0351562 14.492188 -0.238281 16.023438 -0.816406 C 17.554688 -1.394531 18.882812 -2.210938 20.003906 -3.265625 C 21.09375 -4.320312 21.976562 -5.578125 22.625 -7.078125 C 23.234375 -8.574219 23.578125 -10.207031 23.578125 -12.042969 C 23.578125 -13.847656 23.234375 -15.480469 22.625 -16.976562 C 21.976562 -18.472656 21.09375 -19.730469 20.003906 -20.785156 C 18.882812 -21.839844 17.554688 -22.65625 16.058594 -23.234375 C 14.527344 -23.816406 12.859375 -24.121094 11.089844 -24.121094 L 5.441406 -24.121094 C 4.96875 -24.121094 4.523438 -24.019531 4.152344 -23.847656 C 3.777344 -23.679688 3.46875 -23.472656 3.230469 -23.203125 C 2.992188 -22.929688 2.824219 -22.65625 2.6875 -22.351562 C 2.550781 -22.011719 2.515625 -21.707031 2.515625 -21.398438 L 2.515625 -2.722656 C 2.515625 -2.414062 2.550781 -2.109375 2.6875 -1.769531 C 2.824219 -1.429688 2.992188 -1.15625 3.230469 -0.882812 C 3.46875 -0.613281 3.777344 -0.375 4.152344 -0.203125 C 4.523438 -0.0351562 4.96875 0.0351562 5.441406 0.0351562 Z M 11.089844 -5.375 L 8.710938 -5.375 C 8.640625 -5.375 8.539062 -5.410156 8.4375 -5.476562 C 8.300781 -5.546875 8.265625 -5.679688 8.265625 -5.886719 L 8.265625 -18.199219 C 8.265625 -18.371094 8.300781 -18.507812 8.4375 -18.609375 C 8.539062 -18.675781 8.640625 -18.746094 8.710938 -18.746094 L 11.089844 -18.746094 C 12.179688 -18.746094 13.167969 -18.574219 14.015625 -18.234375 C 14.832031 -17.894531 15.546875 -17.417969 16.125 -16.804688 C 16.671875 -16.195312 17.113281 -15.511719 17.382812 -14.695312 C 17.65625 -13.878906 17.828125 -12.996094 17.828125 -12.078125 C 17.828125 -11.125 17.65625 -10.273438 17.382812 -9.457031 C 17.113281 -8.640625 16.671875 -7.925781 16.125 -7.316406 C 15.546875 -6.703125 14.832031 -6.226562 14.015625 -5.886719 C 13.167969 -5.546875 12.179688 -5.375 11.089844 -5.375 Z M 11.089844 -5.375 "/></g></g></g><g fill="#5ce1e6" fill-opacity="0.502"><g transform="translate(54.632103, 291.143678)"><g><path d="M 5.410156 0 L 15.039062 0 C 15.511719 0 15.921875 -0.0664062 16.296875 -0.238281 C 16.636719 -0.410156 16.941406 -0.613281 17.179688 -0.882812 C 17.417969 -1.15625 17.589844 -1.429688 17.726562 -1.769531 C 17.828125 -2.074219 17.894531 -2.382812 17.894531 -2.6875 C 17.894531 -2.992188 17.828125 -3.300781 17.691406 -3.640625 C 17.554688 -3.945312 17.382812 -4.21875 17.148438 -4.492188 C 16.875 -4.730469 16.566406 -4.933594 16.226562 -5.101562 C 15.886719 -5.273438 15.480469 -5.375 15.003906 -5.375 L 8.675781 -5.375 C 8.605469 -5.375 8.503906 -5.410156 8.402344 -5.476562 C 8.265625 -5.546875 8.234375 -5.679688 8.234375 -5.886719 L 8.234375 -9.421875 C 8.234375 -9.59375 8.265625 -9.730469 8.402344 -9.832031 C 8.503906 -9.898438 8.605469 -9.96875 8.675781 -9.96875 L 13.234375 -9.96875 C 13.710938 -9.96875 14.117188 -10.035156 14.457031 -10.207031 C 14.800781 -10.375 15.105469 -10.582031 15.34375 -10.851562 C 15.582031 -11.125 15.75 -11.398438 15.886719 -11.738281 C 16.023438 -12.042969 16.09375 -12.347656 16.09375 -12.65625 C 16.09375 -12.960938 16.023438 -13.269531 15.886719 -13.609375 C 15.75 -13.914062 15.582031 -14.1875 15.34375 -14.457031 C 15.070312 -14.695312 14.765625 -14.902344 14.425781 -15.070312 C 14.085938 -15.242188 13.675781 -15.34375 13.199219 -15.34375 L 8.640625 -15.34375 C 8.574219 -15.34375 8.472656 -15.378906 8.367188 -15.445312 C 8.234375 -15.511719 8.199219 -15.648438 8.199219 -15.855469 L 8.199219 -18.199219 C 8.199219 -18.371094 8.234375 -18.507812 8.367188 -18.609375 C 8.472656 -18.675781 8.574219 -18.746094 8.640625 -18.746094 L 14.96875 -18.746094 C 15.445312 -18.746094 15.855469 -18.8125 16.226562 -18.984375 C 16.566406 -19.152344 16.875 -19.359375 17.113281 -19.628906 C 17.351562 -19.867188 17.519531 -20.140625 17.65625 -20.480469 C 17.757812 -20.785156 17.828125 -21.09375 17.828125 -21.398438 C 17.828125 -21.707031 17.757812 -22.011719 17.621094 -22.351562 C 17.488281 -22.65625 17.316406 -22.929688 17.078125 -23.203125 C 16.804688 -23.441406 16.5 -23.644531 16.160156 -23.816406 C 15.820312 -23.984375 15.410156 -24.085938 14.933594 -24.085938 L 5.308594 -24.085938 C 4.832031 -24.085938 4.390625 -23.984375 4.046875 -23.816406 C 3.707031 -23.644531 3.402344 -23.441406 3.164062 -23.167969 C 2.890625 -22.894531 2.722656 -22.625 2.585938 -22.316406 C 2.449219 -21.976562 2.414062 -21.671875 2.414062 -21.398438 L 2.414062 -2.652344 C 2.414062 -2.3125 2.484375 -1.972656 2.621094 -1.667969 C 2.753906 -1.328125 2.960938 -1.054688 3.230469 -0.816406 C 3.503906 -0.542969 3.808594 -0.339844 4.183594 -0.203125 C 4.558594 -0.0664062 4.96875 0 5.410156 0 Z M 5.410156 0 "/></g></g></g><g fill="#5ce1e6" fill-opacity="0.502"><g transform="translate(75.111465, 291.143678)"><g><path d="M 8.234375 -14.289062 L 12.757812 -9.59375 C 12.929688 -9.390625 13.132812 -9.253906 13.402344 -9.117188 C 13.675781 -8.980469 13.949219 -8.914062 14.289062 -8.914062 C 14.628906 -8.914062 14.902344 -8.980469 15.171875 -9.117188 C 15.445312 -9.253906 15.648438 -9.390625 15.855469 -9.59375 L 20.378906 -14.289062 L 20.378906 -2.621094 C 20.378906 -2.3125 20.414062 -2.007812 20.546875 -1.699219 C 20.683594 -1.359375 20.855469 -1.089844 21.09375 -0.816406 C 21.332031 -0.542969 21.636719 -0.304688 21.976562 -0.136719 C 22.316406 0.0351562 22.761719 0.101562 23.234375 0.101562 C 23.710938 0.101562 24.121094 0.0351562 24.460938 -0.136719 C 24.800781 -0.304688 25.105469 -0.511719 25.34375 -0.78125 C 25.582031 -1.054688 25.753906 -1.328125 25.890625 -1.667969 C 26.027344 -1.972656 26.09375 -2.28125 26.09375 -2.585938 L 26.09375 -21.332031 C 26.09375 -21.636719 26.027344 -21.945312 25.890625 -22.25 C 25.753906 -22.554688 25.582031 -22.828125 25.34375 -23.101562 C 25.074219 -23.371094 24.765625 -23.578125 24.425781 -23.746094 C 24.085938 -23.882812 23.679688 -23.984375 23.203125 -23.984375 C 22.761719 -23.984375 22.351562 -23.882812 21.976562 -23.746094 C 21.601562 -23.578125 21.296875 -23.371094 21.058594 -23.132812 L 14.222656 -15.988281 L 7.550781 -23.203125 C 7.007812 -23.78125 6.292969 -24.085938 5.410156 -24.085938 C 4.933594 -24.085938 4.492188 -23.984375 4.152344 -23.816406 C 3.808594 -23.644531 3.503906 -23.441406 3.265625 -23.167969 C 2.992188 -22.894531 2.824219 -22.625 2.6875 -22.316406 C 2.550781 -21.976562 2.515625 -21.671875 2.515625 -21.398438 L 2.515625 -2.652344 C 2.515625 -2.347656 2.550781 -2.042969 2.6875 -1.734375 C 2.824219 -1.394531 2.992188 -1.121094 3.230469 -0.851562 C 3.46875 -0.578125 3.777344 -0.339844 4.117188 -0.171875 C 4.457031 0 4.898438 0.0664062 5.375 0.0664062 C 5.851562 0.0664062 6.261719 0 6.632812 -0.171875 C 6.972656 -0.339844 7.28125 -0.542969 7.519531 -0.816406 C 7.757812 -1.089844 7.925781 -1.359375 8.0625 -1.699219 C 8.164062 -2.007812 8.234375 -2.3125 8.234375 -2.621094 Z M 8.234375 -14.289062 "/></g></g></g><g fill="#5ce1e6" fill-opacity="0.502"><g transform="translate(103.891433, 291.143678)"><g><path d="M 15.039062 0 C 16.804688 0 18.4375 -0.273438 19.96875 -0.851562 C 21.46875 -1.429688 22.792969 -2.246094 23.917969 -3.300781 C 25.003906 -4.355469 25.890625 -5.613281 26.535156 -7.109375 C 27.148438 -8.605469 27.488281 -10.242188 27.488281 -12.078125 C 27.488281 -13.878906 27.148438 -15.511719 26.535156 -17.011719 C 25.890625 -18.472656 25.003906 -19.730469 23.917969 -20.785156 C 22.792969 -21.839844 21.46875 -22.65625 19.96875 -23.234375 C 18.4375 -23.816406 16.804688 -24.121094 15.039062 -24.121094 C 13.269531 -24.121094 11.601562 -23.816406 10.070312 -23.234375 C 8.539062 -22.65625 7.210938 -21.839844 6.125 -20.785156 C 5 -19.730469 4.117188 -18.472656 3.503906 -17.011719 C 2.859375 -15.511719 2.550781 -13.878906 2.550781 -12.078125 C 2.550781 -10.242188 2.859375 -8.605469 3.503906 -7.109375 C 4.117188 -5.613281 5 -4.355469 6.125 -3.300781 C 7.210938 -2.246094 8.539062 -1.429688 10.070312 -0.851562 C 11.601562 -0.273438 13.269531 0 15.039062 0 Z M 21.738281 -12.078125 C 21.738281 -11.125 21.570312 -10.242188 21.296875 -9.421875 C 21.023438 -8.605469 20.582031 -7.925781 20.039062 -7.316406 C 19.492188 -6.703125 18.78125 -6.261719 17.964844 -5.917969 C 17.113281 -5.578125 16.125 -5.410156 15.039062 -5.410156 C 13.914062 -5.410156 12.929688 -5.578125 12.113281 -5.917969 C 11.261719 -6.261719 10.546875 -6.703125 10.003906 -7.316406 C 9.421875 -7.925781 8.980469 -8.605469 8.710938 -9.421875 C 8.4375 -10.242188 8.300781 -11.125 8.300781 -12.078125 C 8.300781 -12.996094 8.4375 -13.878906 8.710938 -14.695312 C 8.980469 -15.511719 9.421875 -16.195312 10.003906 -16.804688 C 10.546875 -17.417969 11.261719 -17.894531 12.113281 -18.234375 C 12.929688 -18.574219 13.914062 -18.746094 15.039062 -18.746094 C 16.125 -18.746094 17.113281 -18.574219 17.964844 -18.234375 C 18.78125 -17.894531 19.492188 -17.417969 20.039062 -16.804688 C 20.582031 -16.195312 21.023438 -15.511719 21.296875 -14.695312 C 21.570312 -13.878906 21.738281 -12.996094 21.738281 -12.078125 Z M 21.738281 -12.078125 "/></g></g></g><g fill="#5ce1e6" fill-opacity="0.502"><g transform="translate(133.930101, 291.143678)"><g/></g></g><g fill="#5ce1e6" fill-opacity="0.502"><g transform="translate(144.135758, 291.143678)"><g><path d="M 15.039062 0 C 16.804688 0 18.4375 -0.273438 19.96875 -0.851562 C 21.46875 -1.429688 22.792969 -2.246094 23.917969 -3.300781 C 25.003906 -4.355469 25.890625 -5.613281 26.535156 -7.109375 C 27.148438 -8.605469 27.488281 -10.242188 27.488281 -12.078125 C 27.488281 -13.878906 27.148438 -15.511719 26.535156 -17.011719 C 25.890625 -18.472656 25.003906 -19.730469 23.917969 -20.785156 C 22.792969 -21.839844 21.46875 -22.65625 19.96875 -23.234375 C 18.4375 -23.816406 16.804688 -24.121094 15.039062 -24.121094 C 13.269531 -24.121094 11.601562 -23.816406 10.070312 -23.234375 C 8.539062 -22.65625 7.210938 -21.839844 6.125 -20.785156 C 5 -19.730469 4.117188 -18.472656 3.503906 -17.011719 C 2.859375 -15.511719 2.550781 -13.878906 2.550781 -12.078125 C 2.550781 -10.242188 2.859375 -8.605469 3.503906 -7.109375 C 4.117188 -5.613281 5 -4.355469 6.125 -3.300781 C 7.210938 -2.246094 8.539062 -1.429688 10.070312 -0.851562 C 11.601562 -0.273438 13.269531 0 15.039062 0 Z M 21.738281 -12.078125 C 21.738281 -11.125 21.570312 -10.242188 21.296875 -9.421875 C 21.023438 -8.605469 20.582031 -7.925781 20.039062 -7.316406 C 19.492188 -6.703125 18.78125 -6.261719 17.964844 -5.917969 C 17.113281 -5.578125 16.125 -5.410156 15.039062 -5.410156 C 13.914062 -5.410156 12.929688 -5.578125 12.113281 -5.917969 C 11.261719 -6.261719 10.546875 -6.703125 10.003906 -7.316406 C 9.421875 -7.925781 8.980469 -8.605469 8.710938 -9.421875 C 8.4375 -10.242188 8.300781 -11.125 8.300781 -12.078125 C 8.300781 -12.996094 8.4375 -13.878906 8.710938 -14.695312 C 8.980469 -15.511719 9.421875 -16.195312 10.003906 -16.804688 C 10.546875 -17.417969 11.261719 -17.894531 12.113281 -18.234375 C 12.929688 -18.574219 13.914062 -18.746094 15.039062 -18.746094 C 16.125 -18.746094 17.113281 -18.574219 17.964844 -18.234375 C 18.78125 -17.894531 19.492188 -17.417969 20.039062 -16.804688 C 20.582031 -16.195312 21.023438 -15.511719 21.296875 -14.695312 C 21.570312 -13.878906 21.738281 -12.996094 21.738281 -12.078125 Z M 21.738281 -12.078125 "/></g></g></g><g fill="#5ce1e6" fill-opacity="0.502"><g transform="translate(174.174425, 291.143678)"><g><path d="M 8.234375 -13.8125 L 19.324219 -0.988281 C 19.5625 -0.679688 19.867188 -0.441406 20.277344 -0.238281 C 20.652344 -0.0351562 21.09375 0.0351562 21.570312 0.0351562 C 22.046875 0.0351562 22.453125 -0.0351562 22.792969 -0.203125 C 23.132812 -0.375 23.441406 -0.578125 23.679688 -0.851562 C 23.917969 -1.121094 24.085938 -1.394531 24.222656 -1.734375 C 24.359375 -2.042969 24.425781 -2.347656 24.425781 -2.652344 L 24.425781 -21.398438 C 24.425781 -21.671875 24.359375 -21.976562 24.222656 -22.316406 C 24.085938 -22.625 23.917969 -22.894531 23.679688 -23.167969 C 23.40625 -23.40625 23.101562 -23.609375 22.761719 -23.78125 C 22.417969 -23.949219 22.011719 -24.054688 21.535156 -24.054688 C 21.058594 -24.054688 20.617188 -23.949219 20.277344 -23.78125 C 19.9375 -23.609375 19.628906 -23.40625 19.390625 -23.132812 C 19.121094 -22.863281 18.949219 -22.589844 18.8125 -22.285156 C 18.675781 -21.945312 18.644531 -21.636719 18.644531 -21.363281 L 18.644531 -10.410156 L 7.65625 -23.132812 C 7.382812 -23.40625 7.078125 -23.609375 6.703125 -23.816406 C 6.292969 -24.019531 5.886719 -24.121094 5.410156 -24.121094 C 4.933594 -24.121094 4.492188 -24.019531 4.152344 -23.847656 C 3.808594 -23.679688 3.503906 -23.472656 3.265625 -23.203125 C 2.992188 -22.929688 2.824219 -22.65625 2.6875 -22.351562 C 2.550781 -22.011719 2.515625 -21.707031 2.515625 -21.398438 L 2.515625 -2.6875 C 2.515625 -2.382812 2.550781 -2.074219 2.6875 -1.769531 C 2.824219 -1.429688 2.992188 -1.15625 3.230469 -0.882812 C 3.46875 -0.613281 3.777344 -0.375 4.117188 -0.203125 C 4.457031 -0.0351562 4.898438 0.0351562 5.375 0.0351562 C 5.851562 0.0351562 6.261719 -0.0351562 6.632812 -0.203125 C 6.972656 -0.375 7.28125 -0.578125 7.519531 -0.851562 C 7.757812 -1.121094 7.925781 -1.394531 8.0625 -1.734375 C 8.164062 -2.042969 8.234375 -2.347656 8.234375 -2.652344 Z M 8.234375 -13.8125 "/></g></g></g><g fill="#5ce1e6" fill-opacity="0.502"><g transform="translate(201.219425, 291.143678)"><g/></g></g><g fill="#5bffd3" fill-opacity="1"><g transform="translate(27.181969, 291.417808)"><g><path d="M 11.089844 0.0351562 C 12.859375 0.0351562 14.492188 -0.238281 16.023438 -0.816406 C 17.554688 -1.394531 18.882812 -2.210938 20.003906 -3.265625 C 21.09375 -4.320312 21.976562 -5.578125 22.625 -7.078125 C 23.234375 -8.574219 23.578125 -10.207031 23.578125 -12.042969 C 23.578125 -13.847656 23.234375 -15.480469 22.625 -16.976562 C 21.976562 -18.472656 21.09375 -19.730469 20.003906 -20.785156 C 18.882812 -21.839844 17.554688 -22.65625 16.058594 -23.234375 C 14.527344 -23.816406 12.859375 -24.121094 11.089844 -24.121094 L 5.441406 -24.121094 C 4.96875 -24.121094 4.523438 -24.019531 4.152344 -23.847656 C 3.777344 -23.679688 3.46875 -23.472656 3.230469 -23.203125 C 2.992188 -22.929688 2.824219 -22.65625 2.6875 -22.351562 C 2.550781 -22.011719 2.515625 -21.707031 2.515625 -21.398438 L 2.515625 -2.722656 C 2.515625 -2.414062 2.550781 -2.109375 2.6875 -1.769531 C 2.824219 -1.429688 2.992188 -1.15625 3.230469 -0.882812 C 3.46875 -0.613281 3.777344 -0.375 4.152344 -0.203125 C 4.523438 -0.0351562 4.96875 0.0351562 5.441406 0.0351562 Z M 11.089844 -5.375 L 8.710938 -5.375 C 8.640625 -5.375 8.539062 -5.410156 8.4375 -5.476562 C 8.300781 -5.546875 8.265625 -5.679688 8.265625 -5.886719 L 8.265625 -18.199219 C 8.265625 -18.371094 8.300781 -18.507812 8.4375 -18.609375 C 8.539062 -18.675781 8.640625 -18.746094 8.710938 -18.746094 L 11.089844 -18.746094 C 12.179688 -18.746094 13.167969 -18.574219 14.015625 -18.234375 C 14.832031 -17.894531 15.546875 -17.417969 16.125 -16.804688 C 16.671875 -16.195312 17.113281 -15.511719 17.382812 -14.695312 C 17.65625 -13.878906 17.828125 -12.996094 17.828125 -12.078125 C 17.828125 -11.125 17.65625 -10.273438 17.382812 -9.457031 C 17.113281 -8.640625 16.671875 -7.925781 16.125 -7.316406 C 15.546875 -6.703125 14.832031 -6.226562 14.015625 -5.886719 C 13.167969 -5.546875 12.179688 -5.375 11.089844 -5.375 Z M 11.089844 -5.375 "/></g></g></g><g fill="#5bffd3" fill-opacity="1"><g transform="translate(53.342476, 291.417808)"><g><path d="M 5.410156 0 L 15.039062 0 C 15.511719 0 15.921875 -0.0664062 16.296875 -0.238281 C 16.636719 -0.410156 16.941406 -0.613281 17.179688 -0.882812 C 17.417969 -1.15625 17.589844 -1.429688 17.726562 -1.769531 C 17.828125 -2.074219 17.894531 -2.382812 17.894531 -2.6875 C 17.894531 -2.992188 17.828125 -3.300781 17.691406 -3.640625 C 17.554688 -3.945312 17.382812 -4.21875 17.148438 -4.492188 C 16.875 -4.730469 16.566406 -4.933594 16.226562 -5.101562 C 15.886719 -5.273438 15.480469 -5.375 15.003906 -5.375 L 8.675781 -5.375 C 8.605469 -5.375 8.503906 -5.410156 8.402344 -5.476562 C 8.265625 -5.546875 8.234375 -5.679688 8.234375 -5.886719 L 8.234375 -9.421875 C 8.234375 -9.59375 8.265625 -9.730469 8.402344 -9.832031 C 8.503906 -9.898438 8.605469 -9.96875 8.675781 -9.96875 L 13.234375 -9.96875 C 13.710938 -9.96875 14.117188 -10.035156 14.457031 -10.207031 C 14.800781 -10.375 15.105469 -10.582031 15.34375 -10.851562 C 15.582031 -11.125 15.75 -11.398438 15.886719 -11.738281 C 16.023438 -12.042969 16.09375 -12.347656 16.09375 -12.65625 C 16.09375 -12.960938 16.023438 -13.269531 15.886719 -13.609375 C 15.75 -13.914062 15.582031 -14.1875 15.34375 -14.457031 C 15.070312 -14.695312 14.765625 -14.902344 14.425781 -15.070312 C 14.085938 -15.242188 13.675781 -15.34375 13.199219 -15.34375 L 8.640625 -15.34375 C 8.574219 -15.34375 8.472656 -15.378906 8.367188 -15.445312 C 8.234375 -15.511719 8.199219 -15.648438 8.199219 -15.855469 L 8.199219 -18.199219 C 8.199219 -18.371094 8.234375 -18.507812 8.367188 -18.609375 C 8.472656 -18.675781 8.574219 -18.746094 8.640625 -18.746094 L 14.96875 -18.746094 C 15.445312 -18.746094 15.855469 -18.8125 16.226562 -18.984375 C 16.566406 -19.152344 16.875 -19.359375 17.113281 -19.628906 C 17.351562 -19.867188 17.519531 -20.140625 17.65625 -20.480469 C 17.757812 -20.785156 17.828125 -21.09375 17.828125 -21.398438 C 17.828125 -21.707031 17.757812 -22.011719 17.621094 -22.351562 C 17.488281 -22.65625 17.316406 -22.929688 17.078125 -23.203125 C 16.804688 -23.441406 16.5 -23.644531 16.160156 -23.816406 C 15.820312 -23.984375 15.410156 -24.085938 14.933594 -24.085938 L 5.308594 -24.085938 C 4.832031 -24.085938 4.390625 -23.984375 4.046875 -23.816406 C 3.707031 -23.644531 3.402344 -23.441406 3.164062 -23.167969 C 2.890625 -22.894531 2.722656 -22.625 2.585938 -22.316406 C 2.449219 -21.976562 2.414062 -21.671875 2.414062 -21.398438 L 2.414062 -2.652344 C 2.414062 -2.3125 2.484375 -1.972656 2.621094 -1.667969 C 2.753906 -1.328125 2.960938 -1.054688 3.230469 -0.816406 C 3.503906 -0.542969 3.808594 -0.339844 4.183594 -0.203125 C 4.558594 -0.0664062 4.96875 0 5.410156 0 Z M 5.410156 0 "/></g></g></g><g fill="#5bffd3" fill-opacity="1"><g transform="translate(73.821837, 291.417808)"><g><path d="M 8.234375 -14.289062 L 12.757812 -9.59375 C 12.929688 -9.390625 13.132812 -9.253906 13.402344 -9.117188 C 13.675781 -8.980469 13.949219 -8.914062 14.289062 -8.914062 C 14.628906 -8.914062 14.902344 -8.980469 15.171875 -9.117188 C 15.445312 -9.253906 15.648438 -9.390625 15.855469 -9.59375 L 20.378906 -14.289062 L 20.378906 -2.621094 C 20.378906 -2.3125 20.414062 -2.007812 20.546875 -1.699219 C 20.683594 -1.359375 20.855469 -1.089844 21.09375 -0.816406 C 21.332031 -0.542969 21.636719 -0.304688 21.976562 -0.136719 C 22.316406 0.0351562 22.761719 0.101562 23.234375 0.101562 C 23.710938 0.101562 24.121094 0.0351562 24.460938 -0.136719 C 24.800781 -0.304688 25.105469 -0.511719 25.34375 -0.78125 C 25.582031 -1.054688 25.753906 -1.328125 25.890625 -1.667969 C 26.027344 -1.972656 26.09375 -2.28125 26.09375 -2.585938 L 26.09375 -21.332031 C 26.09375 -21.636719 26.027344 -21.945312 25.890625 -22.25 C 25.753906 -22.554688 25.582031 -22.828125 25.34375 -23.101562 C 25.074219 -23.371094 24.765625 -23.578125 24.425781 -23.746094 C 24.085938 -23.882812 23.679688 -23.984375 23.203125 -23.984375 C 22.761719 -23.984375 22.351562 -23.882812 21.976562 -23.746094 C 21.601562 -23.578125 21.296875 -23.371094 21.058594 -23.132812 L 14.222656 -15.988281 L 7.550781 -23.203125 C 7.007812 -23.78125 6.292969 -24.085938 5.410156 -24.085938 C 4.933594 -24.085938 4.492188 -23.984375 4.152344 -23.816406 C 3.808594 -23.644531 3.503906 -23.441406 3.265625 -23.167969 C 2.992188 -22.894531 2.824219 -22.625 2.6875 -22.316406 C 2.550781 -21.976562 2.515625 -21.671875 2.515625 -21.398438 L 2.515625 -2.652344 C 2.515625 -2.347656 2.550781 -2.042969 2.6875 -1.734375 C 2.824219 -1.394531 2.992188 -1.121094 3.230469 -0.851562 C 3.46875 -0.578125 3.777344 -0.339844 4.117188 -0.171875 C 4.457031 0 4.898438 0.0664062 5.375 0.0664062 C 5.851562 0.0664062 6.261719 0 6.632812 -0.171875 C 6.972656 -0.339844 7.28125 -0.542969 7.519531 -0.816406 C 7.757812 -1.089844 7.925781 -1.359375 8.0625 -1.699219 C 8.164062 -2.007812 8.234375 -2.3125 8.234375 -2.621094 Z M 8.234375 -14.289062 "/></g></g></g><g fill="#5bffd3" fill-opacity="1"><g transform="translate(102.601806, 291.417808)"><g><path d="M 15.039062 0 C 16.804688 0 18.4375 -0.273438 19.96875 -0.851562 C 21.46875 -1.429688 22.792969 -2.246094 23.917969 -3.300781 C 25.003906 -4.355469 25.890625 -5.613281 26.535156 -7.109375 C 27.148438 -8.605469 27.488281 -10.242188 27.488281 -12.078125 C 27.488281 -13.878906 27.148438 -15.511719 26.535156 -17.011719 C 25.890625 -18.472656 25.003906 -19.730469 23.917969 -20.785156 C 22.792969 -21.839844 21.46875 -22.65625 19.96875 -23.234375 C 18.4375 -23.816406 16.804688 -24.121094 15.039062 -24.121094 C 13.269531 -24.121094 11.601562 -23.816406 10.070312 -23.234375 C 8.539062 -22.65625 7.210938 -21.839844 6.125 -20.785156 C 5 -19.730469 4.117188 -18.472656 3.503906 -17.011719 C 2.859375 -15.511719 2.550781 -13.878906 2.550781 -12.078125 C 2.550781 -10.242188 2.859375 -8.605469 3.503906 -7.109375 C 4.117188 -5.613281 5 -4.355469 6.125 -3.300781 C 7.210938 -2.246094 8.539062 -1.429688 10.070312 -0.851562 C 11.601562 -0.273438 13.269531 0 15.039062 0 Z M 21.738281 -12.078125 C 21.738281 -11.125 21.570312 -10.242188 21.296875 -9.421875 C 21.023438 -8.605469 20.582031 -7.925781 20.039062 -7.316406 C 19.492188 -6.703125 18.78125 -6.261719 17.964844 -5.917969 C 17.113281 -5.578125 16.125 -5.410156 15.039062 -5.410156 C 13.914062 -5.410156 12.929688 -5.578125 12.113281 -5.917969 C 11.261719 -6.261719 10.546875 -6.703125 10.003906 -7.316406 C 9.421875 -7.925781 8.980469 -8.605469 8.710938 -9.421875 C 8.4375 -10.242188 8.300781 -11.125 8.300781 -12.078125 C 8.300781 -12.996094 8.4375 -13.878906 8.710938 -14.695312 C 8.980469 -15.511719 9.421875 -16.195312 10.003906 -16.804688 C 10.546875 -17.417969 11.261719 -17.894531 12.113281 -18.234375 C 12.929688 -18.574219 13.914062 -18.746094 15.039062 -18.746094 C 16.125 -18.746094 17.113281 -18.574219 17.964844 -18.234375 C 18.78125 -17.894531 19.492188 -17.417969 20.039062 -16.804688 C 20.582031 -16.195312 21.023438 -15.511719 21.296875 -14.695312 C 21.570312 -13.878906 21.738281 -12.996094 21.738281 -12.078125 Z M 21.738281 -12.078125 "/></g></g></g><g fill="#5bffd3" fill-opacity="1"><g transform="translate(132.640473, 291.417808)"><g/></g></g><g fill="#5bffd3" fill-opacity="1"><g transform="translate(142.84613, 291.417808)"><g><path d="M 15.039062 0 C 16.804688 0 18.4375 -0.273438 19.96875 -0.851562 C 21.46875 -1.429688 22.792969 -2.246094 23.917969 -3.300781 C 25.003906 -4.355469 25.890625 -5.613281 26.535156 -7.109375 C 27.148438 -8.605469 27.488281 -10.242188 27.488281 -12.078125 C 27.488281 -13.878906 27.148438 -15.511719 26.535156 -17.011719 C 25.890625 -18.472656 25.003906 -19.730469 23.917969 -20.785156 C 22.792969 -21.839844 21.46875 -22.65625 19.96875 -23.234375 C 18.4375 -23.816406 16.804688 -24.121094 15.039062 -24.121094 C 13.269531 -24.121094 11.601562 -23.816406 10.070312 -23.234375 C 8.539062 -22.65625 7.210938 -21.839844 6.125 -20.785156 C 5 -19.730469 4.117188 -18.472656 3.503906 -17.011719 C 2.859375 -15.511719 2.550781 -13.878906 2.550781 -12.078125 C 2.550781 -10.242188 2.859375 -8.605469 3.503906 -7.109375 C 4.117188 -5.613281 5 -4.355469 6.125 -3.300781 C 7.210938 -2.246094 8.539062 -1.429688 10.070312 -0.851562 C 11.601562 -0.273438 13.269531 0 15.039062 0 Z M 21.738281 -12.078125 C 21.738281 -11.125 21.570312 -10.242188 21.296875 -9.421875 C 21.023438 -8.605469 20.582031 -7.925781 20.039062 -7.316406 C 19.492188 -6.703125 18.78125 -6.261719 17.964844 -5.917969 C 17.113281 -5.578125 16.125 -5.410156 15.039062 -5.410156 C 13.914062 -5.410156 12.929688 -5.578125 12.113281 -5.917969 C 11.261719 -6.261719 10.546875 -6.703125 10.003906 -7.316406 C 9.421875 -7.925781 8.980469 -8.605469 8.710938 -9.421875 C 8.4375 -10.242188 8.300781 -11.125 8.300781 -12.078125 C 8.300781 -12.996094 8.4375 -13.878906 8.710938 -14.695312 C 8.980469 -15.511719 9.421875 -16.195312 10.003906 -16.804688 C 10.546875 -17.417969 11.261719 -17.894531 12.113281 -18.234375 C 12.929688 -18.574219 13.914062 -18.746094 15.039062 -18.746094 C 16.125 -18.746094 17.113281 -18.574219 17.964844 -18.234375 C 18.78125 -17.894531 19.492188 -17.417969 20.039062 -16.804688 C 20.582031 -16.195312 21.023438 -15.511719 21.296875 -14.695312 C 21.570312 -13.878906 21.738281 -12.996094 21.738281 -12.078125 Z M 21.738281 -12.078125 "/></g></g></g><g fill="#5bffd3" fill-opacity="1"><g transform="translate(172.884798, 291.417808)"><g><path d="M 8.234375 -13.8125 L 19.324219 -0.988281 C 19.5625 -0.679688 19.867188 -0.441406 20.277344 -0.238281 C 20.652344 -0.0351562 21.09375 0.0351562 21.570312 0.0351562 C 22.046875 0.0351562 22.453125 -0.0351562 22.792969 -0.203125 C 23.132812 -0.375 23.441406 -0.578125 23.679688 -0.851562 C 23.917969 -1.121094 24.085938 -1.394531 24.222656 -1.734375 C 24.359375 -2.042969 24.425781 -2.347656 24.425781 -2.652344 L 24.425781 -21.398438 C 24.425781 -21.671875 24.359375 -21.976562 24.222656 -22.316406 C 24.085938 -22.625 23.917969 -22.894531 23.679688 -23.167969 C 23.40625 -23.40625 23.101562 -23.609375 22.761719 -23.78125 C 22.417969 -23.949219 22.011719 -24.054688 21.535156 -24.054688 C 21.058594 -24.054688 20.617188 -23.949219 20.277344 -23.78125 C 19.9375 -23.609375 19.628906 -23.40625 19.390625 -23.132812 C 19.121094 -22.863281 18.949219 -22.589844 18.8125 -22.285156 C 18.675781 -21.945312 18.644531 -21.636719 18.644531 -21.363281 L 18.644531 -10.410156 L 7.65625 -23.132812 C 7.382812 -23.40625 7.078125 -23.609375 6.703125 -23.816406 C 6.292969 -24.019531 5.886719 -24.121094 5.410156 -24.121094 C 4.933594 -24.121094 4.492188 -24.019531 4.152344 -23.847656 C 3.808594 -23.679688 3.503906 -23.472656 3.265625 -23.203125 C 2.992188 -22.929688 2.824219 -22.65625 2.6875 -22.351562 C 2.550781 -22.011719 2.515625 -21.707031 2.515625 -21.398438 L 2.515625 -2.6875 C 2.515625 -2.382812 2.550781 -2.074219 2.6875 -1.769531 C 2.824219 -1.429688 2.992188 -1.15625 3.230469 -0.882812 C 3.46875 -0.613281 3.777344 -0.375 4.117188 -0.203125 C 4.457031 -0.0351562 4.898438 0.0351562 5.375 0.0351562 C 5.851562 0.0351562 6.261719 -0.0351562 6.632812 -0.203125 C 6.972656 -0.375 7.28125 -0.578125 7.519531 -0.851562 C 7.757812 -1.121094 7.925781 -1.394531 8.0625 -1.734375 C 8.164062 -2.042969 8.234375 -2.347656 8.234375 -2.652344 Z M 8.234375 -13.8125 "/></g></g></g><g fill="#5bffd3" fill-opacity="1"><g transform="translate(199.929798, 291.417808)"><g/></g></g><g fill="#5ce1e6" fill-opacity="0.302"><g transform="translate(212.710713, 290.869576)"><g><path d="M 13.269531 -9.421875 L 8.097656 -22.386719 C 7.894531 -22.828125 7.585938 -23.234375 7.144531 -23.609375 C 6.667969 -23.949219 6.089844 -24.15625 5.410156 -24.15625 C 4.933594 -24.15625 4.523438 -24.054688 4.183594 -23.882812 C 3.808594 -23.710938 3.503906 -23.507812 3.265625 -23.269531 C 3.027344 -23 2.859375 -22.726562 2.722656 -22.417969 C 2.585938 -22.078125 2.550781 -21.773438 2.550781 -21.5 C 2.550781 -21.195312 2.585938 -20.890625 2.722656 -20.546875 L 10.035156 -2.175781 C 10.242188 -1.632812 10.648438 -1.121094 11.226562 -0.714844 C 11.769531 -0.273438 12.453125 -0.0664062 13.269531 -0.0664062 C 14.050781 -0.0664062 14.730469 -0.273438 15.308594 -0.714844 C 15.855469 -1.121094 16.261719 -1.632812 16.464844 -2.175781 L 23.78125 -20.546875 C 23.917969 -20.855469 23.984375 -21.160156 23.984375 -21.5 C 23.984375 -21.773438 23.917969 -22.078125 23.78125 -22.417969 C 23.644531 -22.726562 23.472656 -23 23.234375 -23.269531 C 22.964844 -23.507812 22.65625 -23.710938 22.316406 -23.882812 C 21.976562 -24.054688 21.570312 -24.15625 21.09375 -24.15625 C 20.378906 -24.15625 19.800781 -23.949219 19.359375 -23.609375 C 18.882812 -23.234375 18.574219 -22.828125 18.40625 -22.386719 Z M 13.269531 -9.421875 "/></g></g></g><g fill="#5ce1e6" fill-opacity="0.302"><g transform="translate(239.245427, 290.869576)"><g><path d="M 5.410156 0 L 15.039062 0 C 15.511719 0 15.921875 -0.0664062 16.296875 -0.238281 C 16.636719 -0.410156 16.941406 -0.613281 17.179688 -0.882812 C 17.417969 -1.15625 17.589844 -1.429688 17.726562 -1.769531 C 17.828125 -2.074219 17.894531 -2.382812 17.894531 -2.6875 C 17.894531 -2.992188 17.828125 -3.300781 17.691406 -3.640625 C 17.554688 -3.945312 17.382812 -4.21875 17.148438 -4.492188 C 16.875 -4.730469 16.566406 -4.933594 16.226562 -5.101562 C 15.886719 -5.273438 15.480469 -5.375 15.003906 -5.375 L 8.675781 -5.375 C 8.605469 -5.375 8.503906 -5.410156 8.402344 -5.476562 C 8.265625 -5.546875 8.234375 -5.679688 8.234375 -5.886719 L 8.234375 -9.421875 C 8.234375 -9.59375 8.265625 -9.730469 8.402344 -9.832031 C 8.503906 -9.898438 8.605469 -9.96875 8.675781 -9.96875 L 13.234375 -9.96875 C 13.710938 -9.96875 14.117188 -10.035156 14.457031 -10.207031 C 14.800781 -10.375 15.105469 -10.582031 15.34375 -10.851562 C 15.582031 -11.125 15.75 -11.398438 15.886719 -11.738281 C 16.023438 -12.042969 16.09375 -12.347656 16.09375 -12.65625 C 16.09375 -12.960938 16.023438 -13.269531 15.886719 -13.609375 C 15.75 -13.914062 15.582031 -14.1875 15.34375 -14.457031 C 15.070312 -14.695312 14.765625 -14.902344 14.425781 -15.070312 C 14.085938 -15.242188 13.675781 -15.34375 13.199219 -15.34375 L 8.640625 -15.34375 C 8.574219 -15.34375 8.472656 -15.378906 8.367188 -15.445312 C 8.234375 -15.511719 8.199219 -15.648438 8.199219 -15.855469 L 8.199219 -18.199219 C 8.199219 -18.371094 8.234375 -18.507812 8.367188 -18.609375 C 8.472656 -18.675781 8.574219 -18.746094 8.640625 -18.746094 L 14.96875 -18.746094 C 15.445312 -18.746094 15.855469 -18.8125 16.226562 -18.984375 C 16.566406 -19.152344 16.875 -19.359375 17.113281 -19.628906 C 17.351562 -19.867188 17.519531 -20.140625 17.65625 -20.480469 C 17.757812 -20.785156 17.828125 -21.09375 17.828125 -21.398438 C 17.828125 -21.707031 17.757812 -22.011719 17.621094 -22.351562 C 17.488281 -22.65625 17.316406 -22.929688 17.078125 -23.203125 C 16.804688 -23.441406 16.5 -23.644531 16.160156 -23.816406 C 15.820312 -23.984375 15.410156 -24.085938 14.933594 -24.085938 L 5.308594 -24.085938 C 4.832031 -24.085938 4.390625 -23.984375 4.046875 -23.816406 C 3.707031 -23.644531 3.402344 -23.441406 3.164062 -23.167969 C 2.890625 -22.894531 2.722656 -22.625 2.585938 -22.316406 C 2.449219 -21.976562 2.414062 -21.671875 2.414062 -21.398438 L 2.414062 -2.652344 C 2.414062 -2.3125 2.484375 -1.972656 2.621094 -1.667969 C 2.753906 -1.328125 2.960938 -1.054688 3.230469 -0.816406 C 3.503906 -0.542969 3.808594 -0.339844 4.183594 -0.203125 C 4.558594 -0.0664062 4.96875 0 5.410156 0 Z M 5.410156 0 "/></g></g></g><g fill="#5ce1e6" fill-opacity="0.302"><g transform="translate(259.724788, 290.869576)"><g><path d="M 14.832031 -10.171875 C 16.125 -10.886719 17.148438 -11.769531 17.859375 -12.792969 C 18.542969 -13.8125 18.914062 -15.140625 18.914062 -16.703125 C 18.914062 -17.621094 18.710938 -18.542969 18.371094 -19.425781 C 18.03125 -20.308594 17.519531 -21.125 16.839844 -21.839844 C 16.160156 -22.523438 15.34375 -23.101562 14.355469 -23.507812 C 13.371094 -23.917969 12.246094 -24.15625 10.988281 -24.15625 L 5.441406 -24.15625 C 4.96875 -24.15625 4.523438 -24.054688 4.183594 -23.882812 C 3.84375 -23.710938 3.539062 -23.507812 3.300781 -23.234375 C 3.027344 -22.964844 2.859375 -22.691406 2.722656 -22.386719 C 2.585938 -22.046875 2.550781 -21.738281 2.550781 -21.433594 L 2.550781 -2.722656 C 2.550781 -2.414062 2.585938 -2.109375 2.722656 -1.804688 C 2.859375 -1.464844 3.027344 -1.191406 3.265625 -0.917969 C 3.503906 -0.644531 3.808594 -0.410156 4.152344 -0.238281 C 4.492188 -0.0664062 4.933594 0 5.410156 0 C 5.886719 0 6.292969 -0.0664062 6.667969 -0.238281 C 7.007812 -0.410156 7.316406 -0.613281 7.550781 -0.882812 C 7.789062 -1.15625 7.960938 -1.429688 8.097656 -1.769531 C 8.199219 -2.074219 8.265625 -2.382812 8.265625 -2.6875 L 8.265625 -8.914062 C 8.265625 -9.050781 8.300781 -9.152344 8.367188 -9.1875 C 8.4375 -9.21875 8.472656 -9.253906 8.503906 -9.253906 C 8.640625 -9.253906 8.8125 -9.152344 8.949219 -8.980469 L 13.710938 -1.328125 C 13.949219 -0.917969 14.289062 -0.613281 14.695312 -0.375 C 15.105469 -0.101562 15.617188 0 16.195312 0 C 16.671875 0 17.078125 -0.0664062 17.417969 -0.238281 C 17.757812 -0.410156 18.066406 -0.613281 18.304688 -0.882812 C 18.542969 -1.121094 18.710938 -1.394531 18.847656 -1.734375 C 18.984375 -2.074219 19.050781 -2.382812 19.050781 -2.6875 C 19.050781 -3.164062 18.914062 -3.640625 18.644531 -4.046875 C 18.507812 -4.21875 18.234375 -4.625 17.828125 -5.308594 C 17.417969 -5.953125 16.976562 -6.667969 16.5 -7.449219 C 16.226562 -7.824219 15.988281 -8.199219 15.785156 -8.539062 C 15.582031 -8.878906 15.378906 -9.21875 15.207031 -9.492188 C 15.003906 -9.765625 14.902344 -10.003906 14.832031 -10.171875 Z M 8.234375 -15.207031 L 8.234375 -18.199219 C 8.234375 -18.371094 8.265625 -18.507812 8.402344 -18.609375 C 8.503906 -18.675781 8.605469 -18.746094 8.675781 -18.746094 L 10.921875 -18.746094 C 11.601562 -18.746094 12.144531 -18.542969 12.519531 -18.199219 C 12.894531 -17.859375 13.097656 -17.351562 13.097656 -16.703125 C 13.097656 -16.023438 12.894531 -15.511719 12.519531 -15.171875 C 12.144531 -14.832031 11.601562 -14.664062 10.921875 -14.664062 L 8.675781 -14.664062 C 8.605469 -14.664062 8.503906 -14.695312 8.402344 -14.800781 C 8.265625 -14.867188 8.234375 -15.003906 8.234375 -15.207031 Z M 8.234375 -15.207031 "/></g></g></g><g fill="#5ce1e6" fill-opacity="0.302"><g transform="translate(281.428833, 290.869576)"><g><path d="M 20.074219 -7.347656 C 19.324219 -6.667969 18.574219 -6.191406 17.792969 -5.886719 C 17.011719 -5.546875 16.09375 -5.410156 15.039062 -5.410156 C 13.914062 -5.410156 12.929688 -5.578125 12.113281 -5.917969 C 11.261719 -6.261719 10.546875 -6.703125 10.003906 -7.316406 C 9.421875 -7.925781 8.980469 -8.605469 8.710938 -9.421875 C 8.4375 -10.242188 8.300781 -11.125 8.300781 -12.078125 C 8.300781 -12.996094 8.4375 -13.878906 8.710938 -14.695312 C 8.980469 -15.511719 9.421875 -16.195312 10.003906 -16.804688 C 10.546875 -17.417969 11.261719 -17.894531 12.113281 -18.234375 C 12.929688 -18.574219 13.914062 -18.746094 15.039062 -18.746094 C 15.855469 -18.746094 16.671875 -18.609375 17.488281 -18.371094 C 18.304688 -18.097656 19.050781 -17.691406 19.664062 -17.148438 C 19.730469 -17.078125 19.800781 -17.042969 19.867188 -16.976562 L 20.074219 -16.773438 C 20.308594 -16.535156 20.582031 -16.328125 20.921875 -16.160156 C 21.230469 -15.988281 21.636719 -15.921875 22.148438 -15.921875 C 22.625 -15.921875 23.03125 -15.988281 23.371094 -16.160156 C 23.710938 -16.328125 24.019531 -16.535156 24.289062 -16.804688 C 24.527344 -17.042969 24.699219 -17.316406 24.835938 -17.65625 C 24.972656 -17.996094 25.039062 -18.304688 25.039062 -18.609375 C 25.039062 -19.253906 24.800781 -19.867188 24.324219 -20.414062 C 23.78125 -21.023438 23.132812 -21.570312 22.386719 -22.046875 C 21.636719 -22.523438 20.890625 -22.894531 20.074219 -23.203125 C 19.253906 -23.507812 18.40625 -23.746094 17.554688 -23.882812 C 16.671875 -24.019531 15.855469 -24.121094 15.039062 -24.121094 C 13.269531 -24.121094 11.601562 -23.816406 10.070312 -23.234375 C 8.539062 -22.65625 7.210938 -21.839844 6.125 -20.785156 C 5 -19.730469 4.117188 -18.472656 3.503906 -17.011719 C 2.859375 -15.511719 2.550781 -13.878906 2.550781 -12.078125 C 2.550781 -10.242188 2.859375 -8.605469 3.503906 -7.109375 C 4.117188 -5.613281 5 -4.355469 6.125 -3.300781 C 7.210938 -2.246094 8.539062 -1.429688 10.070312 -0.851562 C 11.601562 -0.273438 13.269531 0 15.039062 0 C 16.535156 0 17.964844 -0.203125 19.359375 -0.644531 C 20.753906 -1.089844 22.011719 -1.769531 23.132812 -2.652344 C 23.609375 -2.992188 24.019531 -3.402344 24.425781 -3.84375 C 24.835938 -4.285156 25.039062 -4.832031 25.039062 -5.511719 C 25.039062 -5.816406 24.972656 -6.125 24.835938 -6.464844 C 24.699219 -6.769531 24.527344 -7.042969 24.289062 -7.316406 C 24.019531 -7.550781 23.710938 -7.757812 23.371094 -7.925781 C 23.03125 -8.097656 22.625 -8.199219 22.148438 -8.199219 C 21.636719 -8.199219 21.230469 -8.097656 20.921875 -7.925781 C 20.582031 -7.757812 20.308594 -7.550781 20.074219 -7.347656 Z M 20.074219 -7.347656 "/></g></g></g><g fill="#5ce1e6" fill-opacity="0.302"><g transform="translate(309.052151, 290.869576)"><g><path d="M 5.410156 0 L 15.039062 0 C 15.511719 0 15.921875 -0.0664062 16.296875 -0.238281 C 16.636719 -0.410156 16.941406 -0.613281 17.179688 -0.882812 C 17.417969 -1.15625 17.589844 -1.429688 17.726562 -1.769531 C 17.828125 -2.074219 17.894531 -2.382812 17.894531 -2.6875 C 17.894531 -2.992188 17.828125 -3.300781 17.691406 -3.640625 C 17.554688 -3.945312 17.382812 -4.21875 17.148438 -4.492188 C 16.875 -4.730469 16.566406 -4.933594 16.226562 -5.101562 C 15.886719 -5.273438 15.480469 -5.375 15.003906 -5.375 L 8.675781 -5.375 C 8.605469 -5.375 8.503906 -5.410156 8.402344 -5.476562 C 8.265625 -5.546875 8.234375 -5.679688 8.234375 -5.886719 L 8.234375 -9.421875 C 8.234375 -9.59375 8.265625 -9.730469 8.402344 -9.832031 C 8.503906 -9.898438 8.605469 -9.96875 8.675781 -9.96875 L 13.234375 -9.96875 C 13.710938 -9.96875 14.117188 -10.035156 14.457031 -10.207031 C 14.800781 -10.375 15.105469 -10.582031 15.34375 -10.851562 C 15.582031 -11.125 15.75 -11.398438 15.886719 -11.738281 C 16.023438 -12.042969 16.09375 -12.347656 16.09375 -12.65625 C 16.09375 -12.960938 16.023438 -13.269531 15.886719 -13.609375 C 15.75 -13.914062 15.582031 -14.1875 15.34375 -14.457031 C 15.070312 -14.695312 14.765625 -14.902344 14.425781 -15.070312 C 14.085938 -15.242188 13.675781 -15.34375 13.199219 -15.34375 L 8.640625 -15.34375 C 8.574219 -15.34375 8.472656 -15.378906 8.367188 -15.445312 C 8.234375 -15.511719 8.199219 -15.648438 8.199219 -15.855469 L 8.199219 -18.199219 C 8.199219 -18.371094 8.234375 -18.507812 8.367188 -18.609375 C 8.472656 -18.675781 8.574219 -18.746094 8.640625 -18.746094 L 14.96875 -18.746094 C 15.445312 -18.746094 15.855469 -18.8125 16.226562 -18.984375 C 16.566406 -19.152344 16.875 -19.359375 17.113281 -19.628906 C 17.351562 -19.867188 17.519531 -20.140625 17.65625 -20.480469 C 17.757812 -20.785156 17.828125 -21.09375 17.828125 -21.398438 C 17.828125 -21.707031 17.757812 -22.011719 17.621094 -22.351562 C 17.488281 -22.65625 17.316406 -22.929688 17.078125 -23.203125 C 16.804688 -23.441406 16.5 -23.644531 16.160156 -23.816406 C 15.820312 -23.984375 15.410156 -24.085938 14.933594 -24.085938 L 5.308594 -24.085938 C 4.832031 -24.085938 4.390625 -23.984375 4.046875 -23.816406 C 3.707031 -23.644531 3.402344 -23.441406 3.164062 -23.167969 C 2.890625 -22.894531 2.722656 -22.625 2.585938 -22.316406 C 2.449219 -21.976562 2.414062 -21.671875 2.414062 -21.398438 L 2.414062 -2.652344 C 2.414062 -2.3125 2.484375 -1.972656 2.621094 -1.667969 C 2.753906 -1.328125 2.960938 -1.054688 3.230469 -0.816406 C 3.503906 -0.542969 3.808594 -0.339844 4.183594 -0.203125 C 4.558594 -0.0664062 4.96875 0 5.410156 0 Z M 5.410156 0 "/></g></g></g><g fill="#5ce1e6" fill-opacity="0.302"><g transform="translate(329.531512, 290.869576)"><g><path d="M 8.199219 -21.398438 C 8.199219 -21.671875 8.132812 -21.945312 8.027344 -22.285156 C 7.925781 -22.589844 7.757812 -22.894531 7.550781 -23.167969 C 7.316406 -23.441406 7.007812 -23.644531 6.667969 -23.847656 C 6.328125 -24.019531 5.886719 -24.121094 5.410156 -24.121094 C 4.933594 -24.121094 4.492188 -24.019531 4.152344 -23.847656 C 3.808594 -23.679688 3.503906 -23.472656 3.265625 -23.203125 C 2.992188 -22.929688 2.824219 -22.65625 2.6875 -22.351562 C 2.550781 -22.011719 2.515625 -21.707031 2.515625 -21.398438 L 2.515625 -2.6875 C 2.515625 -2.382812 2.550781 -2.074219 2.6875 -1.769531 C 2.824219 -1.429688 2.992188 -1.15625 3.230469 -0.882812 C 3.46875 -0.613281 3.777344 -0.375 4.117188 -0.203125 C 4.457031 -0.0351562 4.898438 0.0351562 5.375 0.0351562 L 15.378906 0.0351562 C 15.855469 0.0351562 16.261719 -0.0351562 16.636719 -0.203125 C 16.976562 -0.375 17.28125 -0.578125 17.519531 -0.851562 C 17.757812 -1.121094 17.929688 -1.394531 18.066406 -1.734375 C 18.167969 -2.042969 18.234375 -2.347656 18.234375 -2.652344 C 18.234375 -2.960938 18.167969 -3.265625 18.03125 -3.605469 C 17.894531 -3.914062 17.726562 -4.183594 17.488281 -4.457031 C 17.214844 -4.695312 16.910156 -4.898438 16.566406 -5.070312 C 16.226562 -5.238281 15.820312 -5.339844 15.34375 -5.339844 L 8.640625 -5.339844 C 8.574219 -5.339844 8.472656 -5.375 8.367188 -5.441406 C 8.234375 -5.511719 8.199219 -5.648438 8.199219 -5.851562 Z M 8.199219 -21.398438 "/></g></g></g><g fill="#5ce1e6" fill-opacity="0.502"><g transform="translate(211.421086, 291.143678)"><g><path d="M 13.269531 -9.421875 L 8.097656 -22.386719 C 7.894531 -22.828125 7.585938 -23.234375 7.144531 -23.609375 C 6.667969 -23.949219 6.089844 -24.15625 5.410156 -24.15625 C 4.933594 -24.15625 4.523438 -24.054688 4.183594 -23.882812 C 3.808594 -23.710938 3.503906 -23.507812 3.265625 -23.269531 C 3.027344 -23 2.859375 -22.726562 2.722656 -22.417969 C 2.585938 -22.078125 2.550781 -21.773438 2.550781 -21.5 C 2.550781 -21.195312 2.585938 -20.890625 2.722656 -20.546875 L 10.035156 -2.175781 C 10.242188 -1.632812 10.648438 -1.121094 11.226562 -0.714844 C 11.769531 -0.273438 12.453125 -0.0664062 13.269531 -0.0664062 C 14.050781 -0.0664062 14.730469 -0.273438 15.308594 -0.714844 C 15.855469 -1.121094 16.261719 -1.632812 16.464844 -2.175781 L 23.78125 -20.546875 C 23.917969 -20.855469 23.984375 -21.160156 23.984375 -21.5 C 23.984375 -21.773438 23.917969 -22.078125 23.78125 -22.417969 C 23.644531 -22.726562 23.472656 -23 23.234375 -23.269531 C 22.964844 -23.507812 22.65625 -23.710938 22.316406 -23.882812 C 21.976562 -24.054688 21.570312 -24.15625 21.09375 -24.15625 C 20.378906 -24.15625 19.800781 -23.949219 19.359375 -23.609375 C 18.882812 -23.234375 18.574219 -22.828125 18.40625 -22.386719 Z M 13.269531 -9.421875 "/></g></g></g><g fill="#5ce1e6" fill-opacity="0.502"><g transform="translate(237.9558, 291.143678)"><g><path d="M 5.410156 0 L 15.039062 0 C 15.511719 0 15.921875 -0.0664062 16.296875 -0.238281 C 16.636719 -0.410156 16.941406 -0.613281 17.179688 -0.882812 C 17.417969 -1.15625 17.589844 -1.429688 17.726562 -1.769531 C 17.828125 -2.074219 17.894531 -2.382812 17.894531 -2.6875 C 17.894531 -2.992188 17.828125 -3.300781 17.691406 -3.640625 C 17.554688 -3.945312 17.382812 -4.21875 17.148438 -4.492188 C 16.875 -4.730469 16.566406 -4.933594 16.226562 -5.101562 C 15.886719 -5.273438 15.480469 -5.375 15.003906 -5.375 L 8.675781 -5.375 C 8.605469 -5.375 8.503906 -5.410156 8.402344 -5.476562 C 8.265625 -5.546875 8.234375 -5.679688 8.234375 -5.886719 L 8.234375 -9.421875 C 8.234375 -9.59375 8.265625 -9.730469 8.402344 -9.832031 C 8.503906 -9.898438 8.605469 -9.96875 8.675781 -9.96875 L 13.234375 -9.96875 C 13.710938 -9.96875 14.117188 -10.035156 14.457031 -10.207031 C 14.800781 -10.375 15.105469 -10.582031 15.34375 -10.851562 C 15.582031 -11.125 15.75 -11.398438 15.886719 -11.738281 C 16.023438 -12.042969 16.09375 -12.347656 16.09375 -12.65625 C 16.09375 -12.960938 16.023438 -13.269531 15.886719 -13.609375 C 15.75 -13.914062 15.582031 -14.1875 15.34375 -14.457031 C 15.070312 -14.695312 14.765625 -14.902344 14.425781 -15.070312 C 14.085938 -15.242188 13.675781 -15.34375 13.199219 -15.34375 L 8.640625 -15.34375 C 8.574219 -15.34375 8.472656 -15.378906 8.367188 -15.445312 C 8.234375 -15.511719 8.199219 -15.648438 8.199219 -15.855469 L 8.199219 -18.199219 C 8.199219 -18.371094 8.234375 -18.507812 8.367188 -18.609375 C 8.472656 -18.675781 8.574219 -18.746094 8.640625 -18.746094 L 14.96875 -18.746094 C 15.445312 -18.746094 15.855469 -18.8125 16.226562 -18.984375 C 16.566406 -19.152344 16.875 -19.359375 17.113281 -19.628906 C 17.351562 -19.867188 17.519531 -20.140625 17.65625 -20.480469 C 17.757812 -20.785156 17.828125 -21.09375 17.828125 -21.398438 C 17.828125 -21.707031 17.757812 -22.011719 17.621094 -22.351562 C 17.488281 -22.65625 17.316406 -22.929688 17.078125 -23.203125 C 16.804688 -23.441406 16.5 -23.644531 16.160156 -23.816406 C 15.820312 -23.984375 15.410156 -24.085938 14.933594 -24.085938 L 5.308594 -24.085938 C 4.832031 -24.085938 4.390625 -23.984375 4.046875 -23.816406 C 3.707031 -23.644531 3.402344 -23.441406 3.164062 -23.167969 C 2.890625 -22.894531 2.722656 -22.625 2.585938 -22.316406 C 2.449219 -21.976562 2.414062 -21.671875 2.414062 -21.398438 L 2.414062 -2.652344 C 2.414062 -2.3125 2.484375 -1.972656 2.621094 -1.667969 C 2.753906 -1.328125 2.960938 -1.054688 3.230469 -0.816406 C 3.503906 -0.542969 3.808594 -0.339844 4.183594 -0.203125 C 4.558594 -0.0664062 4.96875 0 5.410156 0 Z M 5.410156 0 "/></g></g></g><g fill="#5ce1e6" fill-opacity="0.502"><g transform="translate(258.435161, 291.143678)"><g><path d="M 14.832031 -10.171875 C 16.125 -10.886719 17.148438 -11.769531 17.859375 -12.792969 C 18.542969 -13.8125 18.914062 -15.140625 18.914062 -16.703125 C 18.914062 -17.621094 18.710938 -18.542969 18.371094 -19.425781 C 18.03125 -20.308594 17.519531 -21.125 16.839844 -21.839844 C 16.160156 -22.523438 15.34375 -23.101562 14.355469 -23.507812 C 13.371094 -23.917969 12.246094 -24.15625 10.988281 -24.15625 L 5.441406 -24.15625 C 4.96875 -24.15625 4.523438 -24.054688 4.183594 -23.882812 C 3.84375 -23.710938 3.539062 -23.507812 3.300781 -23.234375 C 3.027344 -22.964844 2.859375 -22.691406 2.722656 -22.386719 C 2.585938 -22.046875 2.550781 -21.738281 2.550781 -21.433594 L 2.550781 -2.722656 C 2.550781 -2.414062 2.585938 -2.109375 2.722656 -1.804688 C 2.859375 -1.464844 3.027344 -1.191406 3.265625 -0.917969 C 3.503906 -0.644531 3.808594 -0.410156 4.152344 -0.238281 C 4.492188 -0.0664062 4.933594 0 5.410156 0 C 5.886719 0 6.292969 -0.0664062 6.667969 -0.238281 C 7.007812 -0.410156 7.316406 -0.613281 7.550781 -0.882812 C 7.789062 -1.15625 7.960938 -1.429688 8.097656 -1.769531 C 8.199219 -2.074219 8.265625 -2.382812 8.265625 -2.6875 L 8.265625 -8.914062 C 8.265625 -9.050781 8.300781 -9.152344 8.367188 -9.1875 C 8.4375 -9.21875 8.472656 -9.253906 8.503906 -9.253906 C 8.640625 -9.253906 8.8125 -9.152344 8.949219 -8.980469 L 13.710938 -1.328125 C 13.949219 -0.917969 14.289062 -0.613281 14.695312 -0.375 C 15.105469 -0.101562 15.617188 0 16.195312 0 C 16.671875 0 17.078125 -0.0664062 17.417969 -0.238281 C 17.757812 -0.410156 18.066406 -0.613281 18.304688 -0.882812 C 18.542969 -1.121094 18.710938 -1.394531 18.847656 -1.734375 C 18.984375 -2.074219 19.050781 -2.382812 19.050781 -2.6875 C 19.050781 -3.164062 18.914062 -3.640625 18.644531 -4.046875 C 18.507812 -4.21875 18.234375 -4.625 17.828125 -5.308594 C 17.417969 -5.953125 16.976562 -6.667969 16.5 -7.449219 C 16.226562 -7.824219 15.988281 -8.199219 15.785156 -8.539062 C 15.582031 -8.878906 15.378906 -9.21875 15.207031 -9.492188 C 15.003906 -9.765625 14.902344 -10.003906 14.832031 -10.171875 Z M 8.234375 -15.207031 L 8.234375 -18.199219 C 8.234375 -18.371094 8.265625 -18.507812 8.402344 -18.609375 C 8.503906 -18.675781 8.605469 -18.746094 8.675781 -18.746094 L 10.921875 -18.746094 C 11.601562 -18.746094 12.144531 -18.542969 12.519531 -18.199219 C 12.894531 -17.859375 13.097656 -17.351562 13.097656 -16.703125 C 13.097656 -16.023438 12.894531 -15.511719 12.519531 -15.171875 C 12.144531 -14.832031 11.601562 -14.664062 10.921875 -14.664062 L 8.675781 -14.664062 C 8.605469 -14.664062 8.503906 -14.695312 8.402344 -14.800781 C 8.265625 -14.867188 8.234375 -15.003906 8.234375 -15.207031 Z M 8.234375 -15.207031 "/></g></g></g><g fill="#5ce1e6" fill-opacity="0.502"><g transform="translate(280.139206, 291.143678)"><g><path d="M 20.074219 -7.347656 C 19.324219 -6.667969 18.574219 -6.191406 17.792969 -5.886719 C 17.011719 -5.546875 16.09375 -5.410156 15.039062 -5.410156 C 13.914062 -5.410156 12.929688 -5.578125 12.113281 -5.917969 C 11.261719 -6.261719 10.546875 -6.703125 10.003906 -7.316406 C 9.421875 -7.925781 8.980469 -8.605469 8.710938 -9.421875 C 8.4375 -10.242188 8.300781 -11.125 8.300781 -12.078125 C 8.300781 -12.996094 8.4375 -13.878906 8.710938 -14.695312 C 8.980469 -15.511719 9.421875 -16.195312 10.003906 -16.804688 C 10.546875 -17.417969 11.261719 -17.894531 12.113281 -18.234375 C 12.929688 -18.574219 13.914062 -18.746094 15.039062 -18.746094 C 15.855469 -18.746094 16.671875 -18.609375 17.488281 -18.371094 C 18.304688 -18.097656 19.050781 -17.691406 19.664062 -17.148438 C 19.730469 -17.078125 19.800781 -17.042969 19.867188 -16.976562 L 20.074219 -16.773438 C 20.308594 -16.535156 20.582031 -16.328125 20.921875 -16.160156 C 21.230469 -15.988281 21.636719 -15.921875 22.148438 -15.921875 C 22.625 -15.921875 23.03125 -15.988281 23.371094 -16.160156 C 23.710938 -16.328125 24.019531 -16.535156 24.289062 -16.804688 C 24.527344 -17.042969 24.699219 -17.316406 24.835938 -17.65625 C 24.972656 -17.996094 25.039062 -18.304688 25.039062 -18.609375 C 25.039062 -19.253906 24.800781 -19.867188 24.324219 -20.414062 C 23.78125 -21.023438 23.132812 -21.570312 22.386719 -22.046875 C 21.636719 -22.523438 20.890625 -22.894531 20.074219 -23.203125 C 19.253906 -23.507812 18.40625 -23.746094 17.554688 -23.882812 C 16.671875 -24.019531 15.855469 -24.121094 15.039062 -24.121094 C 13.269531 -24.121094 11.601562 -23.816406 10.070312 -23.234375 C 8.539062 -22.65625 7.210938 -21.839844 6.125 -20.785156 C 5 -19.730469 4.117188 -18.472656 3.503906 -17.011719 C 2.859375 -15.511719 2.550781 -13.878906 2.550781 -12.078125 C 2.550781 -10.242188 2.859375 -8.605469 3.503906 -7.109375 C 4.117188 -5.613281 5 -4.355469 6.125 -3.300781 C 7.210938 -2.246094 8.539062 -1.429688 10.070312 -0.851562 C 11.601562 -0.273438 13.269531 0 15.039062 0 C 16.535156 0 17.964844 -0.203125 19.359375 -0.644531 C 20.753906 -1.089844 22.011719 -1.769531 23.132812 -2.652344 C 23.609375 -2.992188 24.019531 -3.402344 24.425781 -3.84375 C 24.835938 -4.285156 25.039062 -4.832031 25.039062 -5.511719 C 25.039062 -5.816406 24.972656 -6.125 24.835938 -6.464844 C 24.699219 -6.769531 24.527344 -7.042969 24.289062 -7.316406 C 24.019531 -7.550781 23.710938 -7.757812 23.371094 -7.925781 C 23.03125 -8.097656 22.625 -8.199219 22.148438 -8.199219 C 21.636719 -8.199219 21.230469 -8.097656 20.921875 -7.925781 C 20.582031 -7.757812 20.308594 -7.550781 20.074219 -7.347656 Z M 20.074219 -7.347656 "/></g></g></g><g fill="#5ce1e6" fill-opacity="0.502"><g transform="translate(307.762523, 291.143678)"><g><path d="M 5.410156 0 L 15.039062 0 C 15.511719 0 15.921875 -0.0664062 16.296875 -0.238281 C 16.636719 -0.410156 16.941406 -0.613281 17.179688 -0.882812 C 17.417969 -1.15625 17.589844 -1.429688 17.726562 -1.769531 C 17.828125 -2.074219 17.894531 -2.382812 17.894531 -2.6875 C 17.894531 -2.992188 17.828125 -3.300781 17.691406 -3.640625 C 17.554688 -3.945312 17.382812 -4.21875 17.148438 -4.492188 C 16.875 -4.730469 16.566406 -4.933594 16.226562 -5.101562 C 15.886719 -5.273438 15.480469 -5.375 15.003906 -5.375 L 8.675781 -5.375 C 8.605469 -5.375 8.503906 -5.410156 8.402344 -5.476562 C 8.265625 -5.546875 8.234375 -5.679688 8.234375 -5.886719 L 8.234375 -9.421875 C 8.234375 -9.59375 8.265625 -9.730469 8.402344 -9.832031 C 8.503906 -9.898438 8.605469 -9.96875 8.675781 -9.96875 L 13.234375 -9.96875 C 13.710938 -9.96875 14.117188 -10.035156 14.457031 -10.207031 C 14.800781 -10.375 15.105469 -10.582031 15.34375 -10.851562 C 15.582031 -11.125 15.75 -11.398438 15.886719 -11.738281 C 16.023438 -12.042969 16.09375 -12.347656 16.09375 -12.65625 C 16.09375 -12.960938 16.023438 -13.269531 15.886719 -13.609375 C 15.75 -13.914062 15.582031 -14.1875 15.34375 -14.457031 C 15.070312 -14.695312 14.765625 -14.902344 14.425781 -15.070312 C 14.085938 -15.242188 13.675781 -15.34375 13.199219 -15.34375 L 8.640625 -15.34375 C 8.574219 -15.34375 8.472656 -15.378906 8.367188 -15.445312 C 8.234375 -15.511719 8.199219 -15.648438 8.199219 -15.855469 L 8.199219 -18.199219 C 8.199219 -18.371094 8.234375 -18.507812 8.367188 -18.609375 C 8.472656 -18.675781 8.574219 -18.746094 8.640625 -18.746094 L 14.96875 -18.746094 C 15.445312 -18.746094 15.855469 -18.8125 16.226562 -18.984375 C 16.566406 -19.152344 16.875 -19.359375 17.113281 -19.628906 C 17.351562 -19.867188 17.519531 -20.140625 17.65625 -20.480469 C 17.757812 -20.785156 17.828125 -21.09375 17.828125 -21.398438 C 17.828125 -21.707031 17.757812 -22.011719 17.621094 -22.351562 C 17.488281 -22.65625 17.316406 -22.929688 17.078125 -23.203125 C 16.804688 -23.441406 16.5 -23.644531 16.160156 -23.816406 C 15.820312 -23.984375 15.410156 -24.085938 14.933594 -24.085938 L 5.308594 -24.085938 C 4.832031 -24.085938 4.390625 -23.984375 4.046875 -23.816406 C 3.707031 -23.644531 3.402344 -23.441406 3.164062 -23.167969 C 2.890625 -22.894531 2.722656 -22.625 2.585938 -22.316406 C 2.449219 -21.976562 2.414062 -21.671875 2.414062 -21.398438 L 2.414062 -2.652344 C 2.414062 -2.3125 2.484375 -1.972656 2.621094 -1.667969 C 2.753906 -1.328125 2.960938 -1.054688 3.230469 -0.816406 C 3.503906 -0.542969 3.808594 -0.339844 4.183594 -0.203125 C 4.558594 -0.0664062 4.96875 0 5.410156 0 Z M 5.410156 0 "/></g></g></g><g fill="#5ce1e6" fill-opacity="0.502"><g transform="translate(328.241885, 291.143678)"><g><path d="M 8.199219 -21.398438 C 8.199219 -21.671875 8.132812 -21.945312 8.027344 -22.285156 C 7.925781 -22.589844 7.757812 -22.894531 7.550781 -23.167969 C 7.316406 -23.441406 7.007812 -23.644531 6.667969 -23.847656 C 6.328125 -24.019531 5.886719 -24.121094 5.410156 -24.121094 C 4.933594 -24.121094 4.492188 -24.019531 4.152344 -23.847656 C 3.808594 -23.679688 3.503906 -23.472656 3.265625 -23.203125 C 2.992188 -22.929688 2.824219 -22.65625 2.6875 -22.351562 C 2.550781 -22.011719 2.515625 -21.707031 2.515625 -21.398438 L 2.515625 -2.6875 C 2.515625 -2.382812 2.550781 -2.074219 2.6875 -1.769531 C 2.824219 -1.429688 2.992188 -1.15625 3.230469 -0.882812 C 3.46875 -0.613281 3.777344 -0.375 4.117188 -0.203125 C 4.457031 -0.0351562 4.898438 0.0351562 5.375 0.0351562 L 15.378906 0.0351562 C 15.855469 0.0351562 16.261719 -0.0351562 16.636719 -0.203125 C 16.976562 -0.375 17.28125 -0.578125 17.519531 -0.851562 C 17.757812 -1.121094 17.929688 -1.394531 18.066406 -1.734375 C 18.167969 -2.042969 18.234375 -2.347656 18.234375 -2.652344 C 18.234375 -2.960938 18.167969 -3.265625 18.03125 -3.605469 C 17.894531 -3.914062 17.726562 -4.183594 17.488281 -4.457031 C 17.214844 -4.695312 16.910156 -4.898438 16.566406 -5.070312 C 16.226562 -5.238281 15.820312 -5.339844 15.34375 -5.339844 L 8.640625 -5.339844 C 8.574219 -5.339844 8.472656 -5.375 8.367188 -5.441406 C 8.234375 -5.511719 8.199219 -5.648438 8.199219 -5.851562 Z M 8.199219 -21.398438 "/></g></g></g><g fill="#000000" fill-opacity="1"><g transform="translate(210.131459, 291.417808)"><g><path d="M 13.269531 -9.421875 L 8.097656 -22.386719 C 7.894531 -22.828125 7.585938 -23.234375 7.144531 -23.609375 C 6.667969 -23.949219 6.089844 -24.15625 5.410156 -24.15625 C 4.933594 -24.15625 4.523438 -24.054688 4.183594 -23.882812 C 3.808594 -23.710938 3.503906 -23.507812 3.265625 -23.269531 C 3.027344 -23 2.859375 -22.726562 2.722656 -22.417969 C 2.585938 -22.078125 2.550781 -21.773438 2.550781 -21.5 C 2.550781 -21.195312 2.585938 -20.890625 2.722656 -20.546875 L 10.035156 -2.175781 C 10.242188 -1.632812 10.648438 -1.121094 11.226562 -0.714844 C 11.769531 -0.273438 12.453125 -0.0664062 13.269531 -0.0664062 C 14.050781 -0.0664062 14.730469 -0.273438 15.308594 -0.714844 C 15.855469 -1.121094 16.261719 -1.632812 16.464844 -2.175781 L 23.78125 -20.546875 C 23.917969 -20.855469 23.984375 -21.160156 23.984375 -21.5 C 23.984375 -21.773438 23.917969 -22.078125 23.78125 -22.417969 C 23.644531 -22.726562 23.472656 -23 23.234375 -23.269531 C 22.964844 -23.507812 22.65625 -23.710938 22.316406 -23.882812 C 21.976562 -24.054688 21.570312 -24.15625 21.09375 -24.15625 C 20.378906 -24.15625 19.800781 -23.949219 19.359375 -23.609375 C 18.882812 -23.234375 18.574219 -22.828125 18.40625 -22.386719 Z M 13.269531 -9.421875 "/></g></g></g><g fill="#000000" fill-opacity="1"><g transform="translate(236.666172, 291.417808)"><g><path d="M 5.410156 0 L 15.039062 0 C 15.511719 0 15.921875 -0.0664062 16.296875 -0.238281 C 16.636719 -0.410156 16.941406 -0.613281 17.179688 -0.882812 C 17.417969 -1.15625 17.589844 -1.429688 17.726562 -1.769531 C 17.828125 -2.074219 17.894531 -2.382812 17.894531 -2.6875 C 17.894531 -2.992188 17.828125 -3.300781 17.691406 -3.640625 C 17.554688 -3.945312 17.382812 -4.21875 17.148438 -4.492188 C 16.875 -4.730469 16.566406 -4.933594 16.226562 -5.101562 C 15.886719 -5.273438 15.480469 -5.375 15.003906 -5.375 L 8.675781 -5.375 C 8.605469 -5.375 8.503906 -5.410156 8.402344 -5.476562 C 8.265625 -5.546875 8.234375 -5.679688 8.234375 -5.886719 L 8.234375 -9.421875 C 8.234375 -9.59375 8.265625 -9.730469 8.402344 -9.832031 C 8.503906 -9.898438 8.605469 -9.96875 8.675781 -9.96875 L 13.234375 -9.96875 C 13.710938 -9.96875 14.117188 -10.035156 14.457031 -10.207031 C 14.800781 -10.375 15.105469 -10.582031 15.34375 -10.851562 C 15.582031 -11.125 15.75 -11.398438 15.886719 -11.738281 C 16.023438 -12.042969 16.09375 -12.347656 16.09375 -12.65625 C 16.09375 -12.960938 16.023438 -13.269531 15.886719 -13.609375 C 15.75 -13.914062 15.582031 -14.1875 15.34375 -14.457031 C 15.070312 -14.695312 14.765625 -14.902344 14.425781 -15.070312 C 14.085938 -15.242188 13.675781 -15.34375 13.199219 -15.34375 L 8.640625 -15.34375 C 8.574219 -15.34375 8.472656 -15.378906 8.367188 -15.445312 C 8.234375 -15.511719 8.199219 -15.648438 8.199219 -15.855469 L 8.199219 -18.199219 C 8.199219 -18.371094 8.234375 -18.507812 8.367188 -18.609375 C 8.472656 -18.675781 8.574219 -18.746094 8.640625 -18.746094 L 14.96875 -18.746094 C 15.445312 -18.746094 15.855469 -18.8125 16.226562 -18.984375 C 16.566406 -19.152344 16.875 -19.359375 17.113281 -19.628906 C 17.351562 -19.867188 17.519531 -20.140625 17.65625 -20.480469 C 17.757812 -20.785156 17.828125 -21.09375 17.828125 -21.398438 C 17.828125 -21.707031 17.757812 -22.011719 17.621094 -22.351562 C 17.488281 -22.65625 17.316406 -22.929688 17.078125 -23.203125 C 16.804688 -23.441406 16.5 -23.644531 16.160156 -23.816406 C 15.820312 -23.984375 15.410156 -24.085938 14.933594 -24.085938 L 5.308594 -24.085938 C 4.832031 -24.085938 4.390625 -23.984375 4.046875 -23.816406 C 3.707031 -23.644531 3.402344 -23.441406 3.164062 -23.167969 C 2.890625 -22.894531 2.722656 -22.625 2.585938 -22.316406 C 2.449219 -21.976562 2.414062 -21.671875 2.414062 -21.398438 L 2.414062 -2.652344 C 2.414062 -2.3125 2.484375 -1.972656 2.621094 -1.667969 C 2.753906 -1.328125 2.960938 -1.054688 3.230469 -0.816406 C 3.503906 -0.542969 3.808594 -0.339844 4.183594 -0.203125 C 4.558594 -0.0664062 4.96875 0 5.410156 0 Z M 5.410156 0 "/></g></g></g><g fill="#000000" fill-opacity="1"><g transform="translate(257.145534, 291.417808)"><g><path d="M 14.832031 -10.171875 C 16.125 -10.886719 17.148438 -11.769531 17.859375 -12.792969 C 18.542969 -13.8125 18.914062 -15.140625 18.914062 -16.703125 C 18.914062 -17.621094 18.710938 -18.542969 18.371094 -19.425781 C 18.03125 -20.308594 17.519531 -21.125 16.839844 -21.839844 C 16.160156 -22.523438 15.34375 -23.101562 14.355469 -23.507812 C 13.371094 -23.917969 12.246094 -24.15625 10.988281 -24.15625 L 5.441406 -24.15625 C 4.96875 -24.15625 4.523438 -24.054688 4.183594 -23.882812 C 3.84375 -23.710938 3.539062 -23.507812 3.300781 -23.234375 C 3.027344 -22.964844 2.859375 -22.691406 2.722656 -22.386719 C 2.585938 -22.046875 2.550781 -21.738281 2.550781 -21.433594 L 2.550781 -2.722656 C 2.550781 -2.414062 2.585938 -2.109375 2.722656 -1.804688 C 2.859375 -1.464844 3.027344 -1.191406 3.265625 -0.917969 C 3.503906 -0.644531 3.808594 -0.410156 4.152344 -0.238281 C 4.492188 -0.0664062 4.933594 0 5.410156 0 C 5.886719 0 6.292969 -0.0664062 6.667969 -0.238281 C 7.007812 -0.410156 7.316406 -0.613281 7.550781 -0.882812 C 7.789062 -1.15625 7.960938 -1.429688 8.097656 -1.769531 C 8.199219 -2.074219 8.265625 -2.382812 8.265625 -2.6875 L 8.265625 -8.914062 C 8.265625 -9.050781 8.300781 -9.152344 8.367188 -9.1875 C 8.4375 -9.21875 8.472656 -9.253906 8.503906 -9.253906 C 8.640625 -9.253906 8.8125 -9.152344 8.949219 -8.980469 L 13.710938 -1.328125 C 13.949219 -0.917969 14.289062 -0.613281 14.695312 -0.375 C 15.105469 -0.101562 15.617188 0 16.195312 0 C 16.671875 0 17.078125 -0.0664062 17.417969 -0.238281 C 17.757812 -0.410156 18.066406 -0.613281 18.304688 -0.882812 C 18.542969 -1.121094 18.710938 -1.394531 18.847656 -1.734375 C 18.984375 -2.074219 19.050781 -2.382812 19.050781 -2.6875 C 19.050781 -3.164062 18.914062 -3.640625 18.644531 -4.046875 C 18.507812 -4.21875 18.234375 -4.625 17.828125 -5.308594 C 17.417969 -5.953125 16.976562 -6.667969 16.5 -7.449219 C 16.226562 -7.824219 15.988281 -8.199219 15.785156 -8.539062 C 15.582031 -8.878906 15.378906 -9.21875 15.207031 -9.492188 C 15.003906 -9.765625 14.902344 -10.003906 14.832031 -10.171875 Z M 8.234375 -15.207031 L 8.234375 -18.199219 C 8.234375 -18.371094 8.265625 -18.507812 8.402344 -18.609375 C 8.503906 -18.675781 8.605469 -18.746094 8.675781 -18.746094 L 10.921875 -18.746094 C 11.601562 -18.746094 12.144531 -18.542969 12.519531 -18.199219 C 12.894531 -17.859375 13.097656 -17.351562 13.097656 -16.703125 C 13.097656 -16.023438 12.894531 -15.511719 12.519531 -15.171875 C 12.144531 -14.832031 11.601562 -14.664062 10.921875 -14.664062 L 8.675781 -14.664062 C 8.605469 -14.664062 8.503906 -14.695312 8.402344 -14.800781 C 8.265625 -14.867188 8.234375 -15.003906 8.234375 -15.207031 Z M 8.234375 -15.207031 "/></g></g></g><g fill="#000000" fill-opacity="1"><g transform="translate(278.849578, 291.417808)"><g><path d="M 20.074219 -7.347656 C 19.324219 -6.667969 18.574219 -6.191406 17.792969 -5.886719 C 17.011719 -5.546875 16.09375 -5.410156 15.039062 -5.410156 C 13.914062 -5.410156 12.929688 -5.578125 12.113281 -5.917969 C 11.261719 -6.261719 10.546875 -6.703125 10.003906 -7.316406 C 9.421875 -7.925781 8.980469 -8.605469 8.710938 -9.421875 C 8.4375 -10.242188 8.300781 -11.125 8.300781 -12.078125 C 8.300781 -12.996094 8.4375 -13.878906 8.710938 -14.695312 C 8.980469 -15.511719 9.421875 -16.195312 10.003906 -16.804688 C 10.546875 -17.417969 11.261719 -17.894531 12.113281 -18.234375 C 12.929688 -18.574219 13.914062 -18.746094 15.039062 -18.746094 C 15.855469 -18.746094 16.671875 -18.609375 17.488281 -18.371094 C 18.304688 -18.097656 19.050781 -17.691406 19.664062 -17.148438 C 19.730469 -17.078125 19.800781 -17.042969 19.867188 -16.976562 L 20.074219 -16.773438 C 20.308594 -16.535156 20.582031 -16.328125 20.921875 -16.160156 C 21.230469 -15.988281 21.636719 -15.921875 22.148438 -15.921875 C 22.625 -15.921875 23.03125 -15.988281 23.371094 -16.160156 C 23.710938 -16.328125 24.019531 -16.535156 24.289062 -16.804688 C 24.527344 -17.042969 24.699219 -17.316406 24.835938 -17.65625 C 24.972656 -17.996094 25.039062 -18.304688 25.039062 -18.609375 C 25.039062 -19.253906 24.800781 -19.867188 24.324219 -20.414062 C 23.78125 -21.023438 23.132812 -21.570312 22.386719 -22.046875 C 21.636719 -22.523438 20.890625 -22.894531 20.074219 -23.203125 C 19.253906 -23.507812 18.40625 -23.746094 17.554688 -23.882812 C 16.671875 -24.019531 15.855469 -24.121094 15.039062 -24.121094 C 13.269531 -24.121094 11.601562 -23.816406 10.070312 -23.234375 C 8.539062 -22.65625 7.210938 -21.839844 6.125 -20.785156 C 5 -19.730469 4.117188 -18.472656 3.503906 -17.011719 C 2.859375 -15.511719 2.550781 -13.878906 2.550781 -12.078125 C 2.550781 -10.242188 2.859375 -8.605469 3.503906 -7.109375 C 4.117188 -5.613281 5 -4.355469 6.125 -3.300781 C 7.210938 -2.246094 8.539062 -1.429688 10.070312 -0.851562 C 11.601562 -0.273438 13.269531 0 15.039062 0 C 16.535156 0 17.964844 -0.203125 19.359375 -0.644531 C 20.753906 -1.089844 22.011719 -1.769531 23.132812 -2.652344 C 23.609375 -2.992188 24.019531 -3.402344 24.425781 -3.84375 C 24.835938 -4.285156 25.039062 -4.832031 25.039062 -5.511719 C 25.039062 -5.816406 24.972656 -6.125 24.835938 -6.464844 C 24.699219 -6.769531 24.527344 -7.042969 24.289062 -7.316406 C 24.019531 -7.550781 23.710938 -7.757812 23.371094 -7.925781 C 23.03125 -8.097656 22.625 -8.199219 22.148438 -8.199219 C 21.636719 -8.199219 21.230469 -8.097656 20.921875 -7.925781 C 20.582031 -7.757812 20.308594 -7.550781 20.074219 -7.347656 Z M 20.074219 -7.347656 "/></g></g></g><g fill="#000000" fill-opacity="1"><g transform="translate(306.472896, 291.417808)"><g><path d="M 5.410156 0 L 15.039062 0 C 15.511719 0 15.921875 -0.0664062 16.296875 -0.238281 C 16.636719 -0.410156 16.941406 -0.613281 17.179688 -0.882812 C 17.417969 -1.15625 17.589844 -1.429688 17.726562 -1.769531 C 17.828125 -2.074219 17.894531 -2.382812 17.894531 -2.6875 C 17.894531 -2.992188 17.828125 -3.300781 17.691406 -3.640625 C 17.554688 -3.945312 17.382812 -4.21875 17.148438 -4.492188 C 16.875 -4.730469 16.566406 -4.933594 16.226562 -5.101562 C 15.886719 -5.273438 15.480469 -5.375 15.003906 -5.375 L 8.675781 -5.375 C 8.605469 -5.375 8.503906 -5.410156 8.402344 -5.476562 C 8.265625 -5.546875 8.234375 -5.679688 8.234375 -5.886719 L 8.234375 -9.421875 C 8.234375 -9.59375 8.265625 -9.730469 8.402344 -9.832031 C 8.503906 -9.898438 8.605469 -9.96875 8.675781 -9.96875 L 13.234375 -9.96875 C 13.710938 -9.96875 14.117188 -10.035156 14.457031 -10.207031 C 14.800781 -10.375 15.105469 -10.582031 15.34375 -10.851562 C 15.582031 -11.125 15.75 -11.398438 15.886719 -11.738281 C 16.023438 -12.042969 16.09375 -12.347656 16.09375 -12.65625 C 16.09375 -12.960938 16.023438 -13.269531 15.886719 -13.609375 C 15.75 -13.914062 15.582031 -14.1875 15.34375 -14.457031 C 15.070312 -14.695312 14.765625 -14.902344 14.425781 -15.070312 C 14.085938 -15.242188 13.675781 -15.34375 13.199219 -15.34375 L 8.640625 -15.34375 C 8.574219 -15.34375 8.472656 -15.378906 8.367188 -15.445312 C 8.234375 -15.511719 8.199219 -15.648438 8.199219 -15.855469 L 8.199219 -18.199219 C 8.199219 -18.371094 8.234375 -18.507812 8.367188 -18.609375 C 8.472656 -18.675781 8.574219 -18.746094 8.640625 -18.746094 L 14.96875 -18.746094 C 15.445312 -18.746094 15.855469 -18.8125 16.226562 -18.984375 C 16.566406 -19.152344 16.875 -19.359375 17.113281 -19.628906 C 17.351562 -19.867188 17.519531 -20.140625 17.65625 -20.480469 C 17.757812 -20.785156 17.828125 -21.09375 17.828125 -21.398438 C 17.828125 -21.707031 17.757812 -22.011719 17.621094 -22.351562 C 17.488281 -22.65625 17.316406 -22.929688 17.078125 -23.203125 C 16.804688 -23.441406 16.5 -23.644531 16.160156 -23.816406 C 15.820312 -23.984375 15.410156 -24.085938 14.933594 -24.085938 L 5.308594 -24.085938 C 4.832031 -24.085938 4.390625 -23.984375 4.046875 -23.816406 C 3.707031 -23.644531 3.402344 -23.441406 3.164062 -23.167969 C 2.890625 -22.894531 2.722656 -22.625 2.585938 -22.316406 C 2.449219 -21.976562 2.414062 -21.671875 2.414062 -21.398438 L 2.414062 -2.652344 C 2.414062 -2.3125 2.484375 -1.972656 2.621094 -1.667969 C 2.753906 -1.328125 2.960938 -1.054688 3.230469 -0.816406 C 3.503906 -0.542969 3.808594 -0.339844 4.183594 -0.203125 C 4.558594 -0.0664062 4.96875 0 5.410156 0 Z M 5.410156 0 "/></g></g></g><g fill="#000000" fill-opacity="1"><g transform="translate(326.952257, 291.417808)"><g><path d="M 8.199219 -21.398438 C 8.199219 -21.671875 8.132812 -21.945312 8.027344 -22.285156 C 7.925781 -22.589844 7.757812 -22.894531 7.550781 -23.167969 C 7.316406 -23.441406 7.007812 -23.644531 6.667969 -23.847656 C 6.328125 -24.019531 5.886719 -24.121094 5.410156 -24.121094 C 4.933594 -24.121094 4.492188 -24.019531 4.152344 -23.847656 C 3.808594 -23.679688 3.503906 -23.472656 3.265625 -23.203125 C 2.992188 -22.929688 2.824219 -22.65625 2.6875 -22.351562 C 2.550781 -22.011719 2.515625 -21.707031 2.515625 -21.398438 L 2.515625 -2.6875 C 2.515625 -2.382812 2.550781 -2.074219 2.6875 -1.769531 C 2.824219 -1.429688 2.992188 -1.15625 3.230469 -0.882812 C 3.46875 -0.613281 3.777344 -0.375 4.117188 -0.203125 C 4.457031 -0.0351562 4.898438 0.0351562 5.375 0.0351562 L 15.378906 0.0351562 C 15.855469 0.0351562 16.261719 -0.0351562 16.636719 -0.203125 C 16.976562 -0.375 17.28125 -0.578125 17.519531 -0.851562 C 17.757812 -1.121094 17.929688 -1.394531 18.066406 -1.734375 C 18.167969 -2.042969 18.234375 -2.347656 18.234375 -2.652344 C 18.234375 -2.960938 18.167969 -3.265625 18.03125 -3.605469 C 17.894531 -3.914062 17.726562 -4.183594 17.488281 -4.457031 C 17.214844 -4.695312 16.910156 -4.898438 16.566406 -5.070312 C 16.226562 -5.238281 15.820312 -5.339844 15.34375 -5.339844 L 8.640625 -5.339844 C 8.574219 -5.339844 8.472656 -5.375 8.367188 -5.441406 C 8.234375 -5.511719 8.199219 -5.648438 8.199219 -5.851562 Z M 8.199219 -21.398438 "/></g></g></g></svg>