<svg xmlns="http://www.w3.org/2000/svg" xmlns:xlink="http://www.w3.org/1999/xlink" width="500" zoomAndPan="magnify" viewBox="0 0 375 374.999991" height="500" preserveAspectRatio="xMidYMid meet" version="1.0"><defs><g/></defs><g fill="#8c52ff" fill-opacity="1"><g transform="translate(291.060103, 197.967145)"><g><path d="M 6.6875 -19.234375 L 10.546875 -19.234375 L 3.015625 2.28125 L -0.84375 2.28125 Z M 6.6875 -19.234375 "/></g></g></g><g fill="#8c52ff" fill-opacity="1"><g transform="translate(300.533762, 197.967145)"><g><path d="M 12.59375 -9.75 L 12.59375 -6.234375 L 1.328125 -2.078125 L 1.328125 -5.40625 L 8.609375 -8 L 1.328125 -10.578125 L 1.328125 -13.90625 Z M 12.59375 -9.75 "/></g></g></g><g fill="#8c52ff" fill-opacity="1"><g transform="translate(55.803432, 197.967145)"><g><path d="M 12.59375 -10.578125 L 5.296875 -8 L 12.59375 -5.40625 L 12.59375 -2.078125 L 1.328125 -6.234375 L 1.328125 -9.75 L 12.59375 -13.90625 Z M 12.59375 -10.578125 "/></g></g></g><g fill="#00ff0a" fill-opacity="1"><g transform="translate(77.310468, 203.624987)"><g><path d="M 27.96875 -16.796875 C 29.8125 -16.148438 31.253906 -15.144531 32.296875 -13.78125 C 33.335938 -12.414062 33.859375 -10.765625 33.859375 -8.828125 C 33.859375 -6.003906 32.722656 -3.828125 30.453125 -2.296875 C 28.179688 -0.765625 24.898438 0 20.609375 0 L 3.21875 0 L 3.21875 -32.203125 L 19.6875 -32.203125 C 23.800781 -32.203125 26.929688 -31.441406 29.078125 -29.921875 C 31.222656 -28.398438 32.296875 -26.351562 32.296875 -23.78125 C 32.296875 -22.25 31.914062 -20.875 31.15625 -19.65625 C 30.40625 -18.445312 29.34375 -17.492188 27.96875 -16.796875 Z M 12.234375 -25.625 L 12.234375 -19.40625 L 18.484375 -19.40625 C 21.554688 -19.40625 23.09375 -20.453125 23.09375 -22.546875 C 23.09375 -24.597656 21.554688 -25.625 18.484375 -25.625 Z M 19.875 -6.578125 C 23.0625 -6.578125 24.65625 -7.664062 24.65625 -9.84375 C 24.65625 -12.019531 23.0625 -13.109375 19.875 -13.109375 L 12.234375 -13.109375 L 12.234375 -6.578125 Z M 19.875 -6.578125 "/></g></g></g><g fill="#00ff0a" fill-opacity="1"><g transform="translate(112.681488, 203.624987)"><g><path d="M 11.125 -21.9375 C 12.019531 -23.070312 13.179688 -23.921875 14.609375 -24.484375 C 16.035156 -25.054688 17.664062 -25.34375 19.5 -25.34375 L 19.5 -17.484375 C 18.707031 -17.578125 18.050781 -17.625 17.53125 -17.625 C 15.65625 -17.625 14.1875 -17.113281 13.125 -16.09375 C 12.070312 -15.082031 11.546875 -13.535156 11.546875 -11.453125 L 11.546875 0 L 2.8125 0 L 2.8125 -24.9375 L 11.125 -24.9375 Z M 11.125 -21.9375 "/></g></g></g><g fill="#00ff0a" fill-opacity="1"><g transform="translate(133.057772, 203.624987)"><g><path d="M 13.4375 -25.34375 C 17.570312 -25.34375 20.726562 -24.398438 22.90625 -22.515625 C 25.082031 -20.628906 26.171875 -17.738281 26.171875 -13.84375 L 26.171875 0 L 18.03125 0 L 18.03125 -3.21875 C 16.769531 -0.800781 14.316406 0.40625 10.671875 0.40625 C 8.742188 0.40625 7.070312 0.0703125 5.65625 -0.59375 C 4.25 -1.269531 3.179688 -2.179688 2.453125 -3.328125 C 1.734375 -4.484375 1.375 -5.796875 1.375 -7.265625 C 1.375 -9.628906 2.28125 -11.460938 4.09375 -12.765625 C 5.90625 -14.066406 8.695312 -14.71875 12.46875 -14.71875 L 17.4375 -14.71875 C 17.28125 -17.351562 15.515625 -18.671875 12.140625 -18.671875 C 10.941406 -18.671875 9.726562 -18.476562 8.5 -18.09375 C 7.28125 -17.71875 6.238281 -17.191406 5.375 -16.515625 L 2.4375 -22.453125 C 3.820312 -23.367188 5.5 -24.078125 7.46875 -24.578125 C 9.445312 -25.085938 11.4375 -25.34375 13.4375 -25.34375 Z M 13.109375 -5.109375 C 14.117188 -5.109375 15.003906 -5.351562 15.765625 -5.84375 C 16.535156 -6.332031 17.09375 -7.050781 17.4375 -8 L 17.4375 -10.171875 L 13.65625 -10.171875 C 11.113281 -10.171875 9.84375 -9.328125 9.84375 -7.640625 C 9.84375 -6.867188 10.132812 -6.253906 10.71875 -5.796875 C 11.300781 -5.335938 12.097656 -5.109375 13.109375 -5.109375 Z M 13.109375 -5.109375 "/></g></g></g><g fill="#00ff0a" fill-opacity="1"><g transform="translate(161.943344, 203.624987)"><g><path d="M 19.046875 -25.34375 C 22.140625 -25.34375 24.628906 -24.421875 26.515625 -22.578125 C 28.398438 -20.742188 29.34375 -17.972656 29.34375 -14.265625 L 29.34375 0 L 20.609375 0 L 20.609375 -12.828125 C 20.609375 -16.234375 19.242188 -17.9375 16.515625 -17.9375 C 15.015625 -17.9375 13.8125 -17.445312 12.90625 -16.46875 C 12 -15.488281 11.546875 -14.015625 11.546875 -12.046875 L 11.546875 0 L 2.8125 0 L 2.8125 -24.9375 L 11.125 -24.9375 L 11.125 -22.21875 C 12.113281 -23.226562 13.28125 -24 14.625 -24.53125 C 15.976562 -25.070312 17.453125 -25.34375 19.046875 -25.34375 Z M 19.046875 -25.34375 "/></g></g></g><g fill="#00ff0a" fill-opacity="1"><g transform="translate(193.956644, 203.624987)"><g><path d="M 29.296875 -34.125 L 29.296875 0 L 20.96875 0 L 20.96875 -2.484375 C 19.34375 -0.554688 16.90625 0.40625 13.65625 0.40625 C 11.394531 0.40625 9.328125 -0.117188 7.453125 -1.171875 C 5.578125 -2.234375 4.09375 -3.742188 3 -5.703125 C 1.914062 -7.660156 1.375 -9.929688 1.375 -12.515625 C 1.375 -15.085938 1.914062 -17.347656 3 -19.296875 C 4.09375 -21.242188 5.578125 -22.738281 7.453125 -23.78125 C 9.328125 -24.820312 11.394531 -25.34375 13.65625 -25.34375 C 16.632812 -25.34375 18.9375 -24.484375 20.5625 -22.765625 L 20.5625 -34.125 Z M 15.5 -6.53125 C 17 -6.53125 18.238281 -7.054688 19.21875 -8.109375 C 20.207031 -9.171875 20.703125 -10.640625 20.703125 -12.515625 C 20.703125 -14.347656 20.21875 -15.785156 19.25 -16.828125 C 18.28125 -17.878906 17.03125 -18.40625 15.5 -18.40625 C 13.96875 -18.40625 12.710938 -17.878906 11.734375 -16.828125 C 10.753906 -15.785156 10.265625 -14.347656 10.265625 -12.515625 C 10.265625 -10.640625 10.753906 -9.171875 11.734375 -8.109375 C 12.710938 -7.054688 13.96875 -6.53125 15.5 -6.53125 Z M 15.5 -6.53125 "/></g></g></g><g fill="#00ff0a" fill-opacity="1"><g transform="translate(226.061943, 203.624987)"><g><path d="M 13.4375 -25.34375 C 17.570312 -25.34375 20.726562 -24.398438 22.90625 -22.515625 C 25.082031 -20.628906 26.171875 -17.738281 26.171875 -13.84375 L 26.171875 0 L 18.03125 0 L 18.03125 -3.21875 C 16.769531 -0.800781 14.316406 0.40625 10.671875 0.40625 C 8.742188 0.40625 7.070312 0.0703125 5.65625 -0.59375 C 4.25 -1.269531 3.179688 -2.179688 2.453125 -3.328125 C 1.734375 -4.484375 1.375 -5.796875 1.375 -7.265625 C 1.375 -9.628906 2.28125 -11.460938 4.09375 -12.765625 C 5.90625 -14.066406 8.695312 -14.71875 12.46875 -14.71875 L 17.4375 -14.71875 C 17.28125 -17.351562 15.515625 -18.671875 12.140625 -18.671875 C 10.941406 -18.671875 9.726562 -18.476562 8.5 -18.09375 C 7.28125 -17.71875 6.238281 -17.191406 5.375 -16.515625 L 2.4375 -22.453125 C 3.820312 -23.367188 5.5 -24.078125 7.46875 -24.578125 C 9.445312 -25.085938 11.4375 -25.34375 13.4375 -25.34375 Z M 13.109375 -5.109375 C 14.117188 -5.109375 15.003906 -5.351562 15.765625 -5.84375 C 16.535156 -6.332031 17.09375 -7.050781 17.4375 -8 L 17.4375 -10.171875 L 13.65625 -10.171875 C 11.113281 -10.171875 9.84375 -9.328125 9.84375 -7.640625 C 9.84375 -6.867188 10.132812 -6.253906 10.71875 -5.796875 C 11.300781 -5.335938 12.097656 -5.109375 13.109375 -5.109375 Z M 17.984375 -27.59375 C 17.160156 -27.59375 16.414062 -27.753906 15.75 -28.078125 C 15.09375 -28.398438 14.367188 -28.835938 13.578125 -29.390625 C 12.992188 -29.785156 12.554688 -30.0625 12.265625 -30.21875 C 11.972656 -30.375 11.671875 -30.453125 11.359375 -30.453125 C 10.753906 -30.453125 10.265625 -30.234375 9.890625 -29.796875 C 9.523438 -29.367188 9.3125 -28.773438 9.25 -28.015625 L 4.96875 -28.015625 C 5.03125 -30.253906 5.582031 -32.03125 6.625 -33.34375 C 7.664062 -34.664062 9.0625 -35.328125 10.8125 -35.328125 C 11.644531 -35.328125 12.378906 -35.171875 13.015625 -34.859375 C 13.660156 -34.554688 14.398438 -34.128906 15.234375 -33.578125 C 15.816406 -33.179688 16.253906 -32.90625 16.546875 -32.75 C 16.835938 -32.59375 17.132812 -32.515625 17.4375 -32.515625 C 18.050781 -32.515625 18.539062 -32.722656 18.90625 -33.140625 C 19.28125 -33.554688 19.5 -34.117188 19.5625 -34.828125 L 23.828125 -34.828125 C 23.765625 -32.648438 23.210938 -30.898438 22.171875 -29.578125 C 21.128906 -28.253906 19.734375 -27.59375 17.984375 -27.59375 Z M 17.984375 -27.59375 "/></g></g></g><g fill="#00ff0a" fill-opacity="1"><g transform="translate(254.947515, 203.624987)"><g><path d="M 15.3125 0.40625 C 12.644531 0.40625 10.238281 -0.140625 8.09375 -1.234375 C 5.945312 -2.335938 4.265625 -3.867188 3.046875 -5.828125 C 1.835938 -7.796875 1.234375 -10.023438 1.234375 -12.515625 C 1.234375 -14.960938 1.835938 -17.164062 3.046875 -19.125 C 4.265625 -21.09375 5.9375 -22.617188 8.0625 -23.703125 C 10.195312 -24.796875 12.613281 -25.34375 15.3125 -25.34375 C 18.007812 -25.34375 20.429688 -24.796875 22.578125 -23.703125 C 24.734375 -22.617188 26.40625 -21.101562 27.59375 -19.15625 C 28.789062 -17.207031 29.390625 -14.992188 29.390625 -12.515625 C 29.390625 -10.023438 28.789062 -7.796875 27.59375 -5.828125 C 26.40625 -3.867188 24.734375 -2.335938 22.578125 -1.234375 C 20.429688 -0.140625 18.007812 0.40625 15.3125 0.40625 Z M 15.3125 -6.53125 C 16.851562 -6.53125 18.113281 -7.054688 19.09375 -8.109375 C 20.070312 -9.171875 20.5625 -10.640625 20.5625 -12.515625 C 20.5625 -14.347656 20.070312 -15.785156 19.09375 -16.828125 C 18.113281 -17.878906 16.851562 -18.40625 15.3125 -18.40625 C 13.78125 -18.40625 12.523438 -17.878906 11.546875 -16.828125 C 10.566406 -15.785156 10.078125 -14.347656 10.078125 -12.515625 C 10.078125 -10.640625 10.566406 -9.171875 11.546875 -8.109375 C 12.523438 -7.054688 13.78125 -6.53125 15.3125 -6.53125 Z M 15.3125 -6.53125 "/></g></g></g></svg>